<svg width="428" height="479" viewBox="0 0 428 479" fill="none" xmlns="http://www.w3.org/2000/svg">
<path d="M383.304 235.312C383.304 133.78 301.08 51.4721 199.652 51.4721C98.2239 51.4721 16 133.78 16 235.312C16 336.843 98.2239 419.151 199.652 419.151C301.08 419.151 383.304 336.843 383.304 235.312Z" fill="#7B4AE2" fill-opacity="0.2"/>
<g filter="url(#filter0_d_479_523)">
<ellipse cx="386.493" cy="250.578" rx="25.5072" ry="25.5498" fill="#090E16"/>
</g>
<g clip-path="url(#clip0_479_523)">
<path fill-rule="evenodd" clip-rule="evenodd" d="M397.254 237.803H375.732C374.631 237.803 373.739 238.697 373.739 239.799V261.357C373.739 262.46 374.631 263.353 375.732 263.353H397.254C398.354 263.353 399.246 262.46 399.246 261.357V239.799C399.246 238.697 398.354 237.803 397.254 237.803ZM388.737 260.568V257.812C389.236 258.231 389.778 258.545 390.363 258.755C390.949 258.964 391.54 259.069 392.136 259.069C392.486 259.069 392.792 259.038 393.053 258.974C393.314 258.911 393.532 258.824 393.707 258.712C393.882 258.6 394.013 258.468 394.099 258.316C394.185 258.163 394.228 257.998 394.228 257.82C394.228 257.579 394.159 257.364 394.021 257.174C393.883 256.985 393.696 256.809 393.457 256.649C393.219 256.488 392.937 256.333 392.61 256.184C392.283 256.034 391.93 255.882 391.551 255.727C390.587 255.325 389.868 254.834 389.395 254.254C388.922 253.674 388.685 252.973 388.685 252.152C388.685 251.509 388.814 250.956 389.072 250.494C389.33 250.032 389.682 249.651 390.127 249.352C390.571 249.054 391.086 248.834 391.672 248.693C392.257 248.553 392.876 248.482 393.531 248.482C394.173 248.482 394.743 248.521 395.239 248.599C395.735 248.676 396.193 248.795 396.612 248.956V251.532C396.405 251.388 396.18 251.262 395.936 251.153C395.692 251.044 395.441 250.953 395.183 250.881C394.925 250.81 394.668 250.757 394.413 250.722C394.157 250.688 393.915 250.67 393.686 250.67C393.37 250.67 393.083 250.701 392.825 250.761C392.567 250.821 392.349 250.906 392.171 251.015C391.993 251.124 391.855 251.255 391.758 251.407C391.66 251.559 391.611 251.73 391.611 251.919C391.611 252.126 391.666 252.311 391.775 252.475C391.884 252.639 392.039 252.794 392.24 252.94C392.44 253.087 392.684 253.23 392.971 253.371C393.258 253.512 393.582 253.657 393.944 253.806C394.437 254.013 394.88 254.232 395.274 254.465C395.667 254.698 396.004 254.96 396.285 255.253C396.566 255.546 396.781 255.881 396.93 256.257C397.079 256.633 397.154 257.071 397.154 257.57C397.154 258.26 397.024 258.838 396.763 259.306C396.501 259.774 396.147 260.153 395.699 260.443C395.252 260.733 394.731 260.941 394.137 261.068C393.544 261.194 392.917 261.257 392.257 261.257C391.58 261.257 390.936 261.2 390.325 261.085C389.713 260.97 389.184 260.798 388.737 260.568ZM387.689 250.952H384.15V261.058H381.346V250.952H377.824V248.682H387.689V250.952Z" fill="#7B4AE2" fill-opacity="0.5"/>
</g>
<g filter="url(#filter1_d_479_523)">
<ellipse cx="41.5072" cy="185.426" rx="25.5072" ry="25.5498" fill="#090E16"/>
</g>
<path d="M51.0499 180.932C50.7525 180.83 50.4443 180.733 50.127 180.641C50.1792 180.428 50.2271 180.218 50.2696 180.011C50.9682 176.614 50.5115 173.877 48.9517 172.976C47.4561 172.113 45.0102 173.013 42.5399 175.167C42.3023 175.374 42.0641 175.593 41.826 175.823C41.6674 175.671 41.509 175.524 41.351 175.383C38.7621 173.081 36.1671 172.11 34.6089 173.014C33.1147 173.88 32.6722 176.453 33.301 179.672C33.3618 179.983 33.4328 180.301 33.513 180.623C33.1458 180.728 32.7912 180.839 32.4519 180.958C29.4167 182.018 27.4783 183.679 27.4783 185.402C27.4783 187.182 29.5592 188.967 32.7206 190.049C32.9701 190.135 33.229 190.215 33.4958 190.292C33.4092 190.641 33.3339 190.983 33.2706 191.317C32.671 194.48 33.1393 196.992 34.6295 197.853C36.1687 198.742 38.752 197.828 41.2674 195.626C41.4662 195.452 41.6657 195.267 41.8656 195.074C42.1247 195.323 42.3834 195.56 42.6407 195.782C45.0772 197.882 47.4836 198.73 48.9724 197.867C50.5101 196.975 51.0099 194.277 50.3611 190.994C50.3115 190.743 50.2538 190.487 50.1891 190.226C50.3705 190.173 50.5486 190.117 50.7223 190.06C54.0089 188.969 56.1472 187.205 56.1472 185.402C56.1472 183.673 54.1463 182 51.0499 180.932ZM50.3371 188.895C50.1803 188.947 50.0195 188.997 49.8556 189.046C49.4927 187.895 49.003 186.672 48.4038 185.408C48.9756 184.174 49.4464 182.966 49.7991 181.823C50.0923 181.908 50.377 181.998 50.6513 182.092C53.3042 183.007 54.9225 184.36 54.9225 185.402C54.9225 186.512 53.1748 187.953 50.3371 188.895ZM49.1596 191.232C49.4465 192.684 49.4875 193.996 49.2974 195.022C49.1267 195.944 48.7833 196.559 48.3587 196.805C47.4552 197.329 45.5231 196.648 43.4394 194.852C43.2005 194.646 42.9599 194.426 42.7185 194.193C43.5264 193.308 44.3337 192.28 45.1217 191.137C46.5076 191.014 47.817 190.812 49.0044 190.538C49.0629 190.774 49.1149 191.006 49.1596 191.232ZM37.2522 196.714C36.3694 197.027 35.6664 197.036 35.2414 196.79C34.3371 196.268 33.9612 194.251 34.474 191.546C34.5327 191.236 34.6026 190.918 34.6832 190.592C35.8576 190.853 37.1574 191.04 38.5467 191.153C39.3399 192.271 40.1706 193.298 41.0077 194.198C40.8248 194.375 40.6426 194.543 40.4615 194.702C39.3492 195.676 38.2345 196.367 37.2522 196.714ZM33.1167 188.888C31.7188 188.41 30.5643 187.788 29.773 187.109C29.0619 186.499 28.7029 185.893 28.7029 185.402C28.7029 184.356 30.2593 183.023 32.8551 182.116C33.17 182.006 33.4998 181.902 33.8419 181.805C34.2007 182.974 34.6713 184.196 35.2392 185.432C34.6639 186.686 34.1866 187.928 33.8244 189.11C33.5804 189.04 33.3441 188.966 33.1167 188.888ZM34.503 179.437C33.9642 176.678 34.322 174.598 35.2224 174.076C36.1816 173.52 38.3024 174.313 40.5378 176.301C40.6806 176.428 40.8241 176.561 40.968 176.698C40.135 177.594 39.3119 178.614 38.5257 179.726C37.1774 179.851 35.8867 180.052 34.7 180.321C34.6254 180.021 34.5594 179.725 34.503 179.437ZM46.8695 182.495C46.5858 182.004 46.2946 181.525 45.9977 181.059C46.9124 181.175 47.7888 181.329 48.6118 181.517C48.3647 182.31 48.0567 183.139 47.6942 183.99C47.4342 183.495 47.1591 182.996 46.8695 182.495ZM41.8264 177.575C42.3913 178.188 42.9571 178.873 43.5135 179.615C42.9528 179.589 42.3851 179.575 41.8128 179.575C41.2458 179.575 40.6823 179.588 40.1251 179.614C40.6821 178.879 41.2527 178.195 41.8264 177.575ZM36.7511 182.504C36.4677 182.996 36.1978 183.492 35.9418 183.989C35.5852 183.141 35.2801 182.308 35.0308 181.504C35.8488 181.32 36.721 181.171 37.63 181.057C37.3289 181.527 37.0352 182.01 36.7511 182.504V182.504ZM37.6561 189.835C36.7171 189.73 35.8317 189.587 35.0139 189.409C35.2671 188.59 35.579 187.739 35.9432 186.874C36.1998 187.37 36.4708 187.867 36.756 188.36H36.756C37.0464 188.862 37.3473 189.355 37.6561 189.835ZM41.8603 193.315C41.2799 192.688 40.7009 191.994 40.1354 191.248C40.6843 191.269 41.244 191.28 41.8128 191.28C42.3971 191.28 42.9748 191.267 43.5434 191.242C42.9851 192.002 42.4214 192.697 41.8603 193.315ZM47.7059 186.83C48.0891 187.705 48.4121 188.551 48.6686 189.356C47.8374 189.546 46.9399 189.699 45.9943 189.813C46.2919 189.34 46.5857 188.853 46.8744 188.351C47.1664 187.844 47.4437 187.336 47.7059 186.83ZM45.8135 187.738C45.3653 188.517 44.9053 189.26 44.4382 189.961C43.5874 190.022 42.7085 190.054 41.8128 190.054C40.9206 190.054 40.0528 190.026 39.2171 189.971C38.7312 189.261 38.2611 188.516 37.8158 187.745H37.8159C37.3718 186.977 36.963 186.202 36.5927 185.431C36.9629 184.659 37.3706 183.883 37.8122 183.116L37.8121 183.117C38.2548 182.348 38.7208 181.606 39.2022 180.9C40.0548 180.835 40.9291 180.802 41.8127 180.802H41.8128C42.7003 180.802 43.5758 180.836 44.4281 180.901C44.9022 181.602 45.365 182.341 45.8095 183.11C46.259 183.888 46.6719 184.658 47.0454 185.414C46.673 186.183 46.261 186.961 45.8135 187.738ZM48.34 174.039C49.3 174.594 49.6733 176.83 49.0701 179.763C49.0317 179.95 48.9883 180.141 48.9413 180.334C47.7519 180.059 46.4603 179.854 45.108 179.727C44.3203 178.604 43.504 177.582 42.6846 176.698C42.9049 176.486 43.1249 176.283 43.3439 176.092C45.4605 174.247 47.4387 173.519 48.34 174.039ZM41.8128 182.838C43.2266 182.838 44.3728 183.986 44.3728 185.402C44.3728 186.818 43.2266 187.966 41.8128 187.966C40.3989 187.966 39.2527 186.818 39.2527 185.402C39.2527 183.986 40.3989 182.838 41.8128 182.838Z" fill="#7B4AE2" fill-opacity="0.5"/>
<g filter="url(#filter2_d_479_523)">
<ellipse cx="41.5072" cy="348.945" rx="25.5072" ry="25.5498" fill="#090E16"/>
</g>
<g clip-path="url(#clip1_479_523)">
<path fill-rule="evenodd" clip-rule="evenodd" d="M37.2893 336.17C34.9426 336.17 33.0381 338.078 33.0381 340.428C33.0381 342.779 34.9426 344.687 37.2893 344.687C34.9426 344.687 33.0381 346.595 33.0381 348.945C33.0381 351.296 34.9426 353.203 37.2893 353.203C34.9426 353.203 33.0381 355.111 33.0381 357.462C33.0381 359.812 34.9426 361.72 37.2893 361.72C39.636 361.72 41.5405 359.812 41.5405 357.462L41.5405 348.945C41.5405 351.296 43.445 353.203 45.7917 353.203C48.1384 353.203 50.0429 351.296 50.0429 348.945C50.0429 346.595 48.1384 344.687 45.7917 344.687C48.1384 344.687 50.0429 342.779 50.0429 340.428C50.0429 338.078 48.1384 336.17 45.7917 336.17H37.2893ZM45.7917 344.687H41.5405L41.5405 348.945C41.5405 346.595 43.445 344.687 45.7917 344.687Z" fill="#7B4AE2" fill-opacity="0.5"/>
</g>
<g filter="url(#filter3_f_479_523)">
<ellipse cx="199.876" cy="232.768" rx="181.739" ry="182.043" fill="#7B4AE2" fill-opacity="0.2"/>
</g>
<g filter="url(#filter4_i_479_523)">
<path fill-rule="evenodd" clip-rule="evenodd" d="M163.185 302.915C189.365 316.893 218.723 315.34 241.726 302.914V333.536L241.985 333.529V351.508H163.185V302.915Z" fill="#BB7D52"/>
<path fill-rule="evenodd" clip-rule="evenodd" d="M163.184 333.424C189.364 347.403 218.723 345.85 241.726 333.424V352.952L259.414 352.51L259.634 352.519C259.634 399.587 147.294 406.633 147.294 352.448L147.732 352.428L163.184 352.507V333.424Z" fill="#E8A475"/>
<path fill-rule="evenodd" clip-rule="evenodd" d="M117.236 139.024C179.713 99.1769 259.643 113.347 286.648 139.623C294.456 158.442 295.007 176.594 292.71 196.079C297.985 192.288 304.257 193.155 309.199 196.686C311.201 212.854 316.564 244.838 292.532 246.225C284.258 349.399 132.659 362.241 112.166 246.563C88.3473 245.74 94.77 213.416 96.2584 197.893C101.973 193.538 108.498 195.73 112.549 197.678L117.236 139.024Z" fill="#E8A475"/>
<path d="M180.518 60.8778L185.686 57.5115L185.686 57.5124C188.557 55.6239 191.756 54.064 192.905 54.064C194.053 54.1461 197.17 55.2136 199.795 56.5271C203.979 58.5794 205.291 58.9081 208.9 58.4973C212.264 58.087 213.822 58.3335 216.611 59.7291C219.318 61.1247 220.877 61.4533 223.748 60.9604C226.537 60.5501 228.341 60.8787 231.459 62.1922C234.412 63.5057 235.97 63.7517 237.447 63.1771C240.154 62.1101 242.779 63.5878 245.65 67.7747C248.439 72.0442 251.31 72.7831 258.939 71.2232C263.697 70.32 264.435 70.32 265.665 71.4691C266.814 72.7009 266.895 73.4398 265.911 77.8731C265.337 80.5823 265.091 83.0454 265.337 83.2913C265.501 83.5378 267.88 83.127 270.423 82.4703C278.38 80.4179 280.349 82.2243 278.708 90.2699C278.298 92.4045 278.38 92.4045 281.743 91.7477C283.63 91.4191 286.911 91.091 289.044 91.0088C292.325 91.0088 293.146 91.337 294.294 93.0612C295.524 94.8671 295.524 95.606 294.54 99.0544C293.146 103.98 293.31 105.787 295.77 110.548C299.052 117.034 300.61 131.319 298.641 136.984C297.739 139.447 297.493 139.611 294.54 139.201C292.735 138.954 284.943 135.342 276.576 130.827C252.623 117.937 246.88 116.131 225.225 114.735C199.959 113.011 177.565 115.556 157.632 122.206C141.554 127.625 125.312 135.917 123.261 139.775C121.456 143.224 119.898 153.24 119.405 165.062C118.988 173.835 118.446 176.629 120.351 177.011L122.488 176.654C125.441 175.998 133.351 174.832 135.155 174.75C137.37 174.75 141.061 173.6 145.819 171.301C152.874 167.935 153.366 167.771 161.323 167.771C170.674 167.771 176.745 169.577 182.159 173.846C183.882 175.242 185.768 176.392 186.342 176.392C186.917 176.392 191.1 177.869 195.529 179.675C205.701 183.781 209.803 183.945 217.76 180.579C220.795 179.265 225.225 177.705 227.604 177.131C229.9 176.556 233.181 174.996 234.74 173.764C239.99 169.66 246.47 167.771 255.658 167.771C263.697 167.771 264.024 167.853 270.833 171.219C274.935 173.272 279.036 174.75 280.677 174.75C282.235 174.832 285.926 175.324 288.798 175.899L294.048 177.048L293.473 171.63C292.571 162.763 289.864 152.501 286.829 146.425C284.368 141.5 284.122 140.596 285.107 139.611C286.091 138.544 286.747 138.626 289.946 140.186C291.997 141.171 294.54 142.813 295.688 143.88C299.134 147.082 301.102 157.016 301.184 171.055V179.265L294.048 177.048L288.798 175.899C285.926 175.324 282.235 174.832 280.677 174.75C279.036 174.75 274.935 173.272 270.833 171.219C264.024 167.853 263.697 167.771 255.658 167.771C246.47 167.771 239.99 169.66 234.74 173.764C233.181 174.996 229.9 176.556 227.604 177.131C225.225 177.705 220.795 179.265 217.76 180.579C209.803 183.945 205.701 183.781 195.529 179.675C191.1 177.869 186.917 176.392 186.342 176.392C185.768 176.392 183.882 175.242 182.159 173.846C176.745 169.577 170.674 167.771 161.323 167.771C153.366 167.771 152.874 167.935 145.819 171.301C141.061 173.6 137.37 174.75 135.155 174.75C133.351 174.832 125.441 175.998 122.488 176.654C119.405 177.106 121.441 177.23 120.351 177.011L117.502 184.146L115.008 183.076L112.159 179.508C111.011 176.471 110.711 146.014 111.694 135.505C112.679 124.668 112.679 124.586 110.874 122.616C108.496 120.071 109.07 118.018 112.761 116.212C116.288 114.57 116.37 114.159 114.156 111.286C110.956 107.263 112.679 103.487 118.585 102.009C121.784 101.27 122.851 99.4638 121.21 97.74C118.093 94.2094 121.128 91.0079 127.526 91.0079C131.382 91.0079 131.464 90.9257 133.023 87.4778C134.089 85.1789 134.663 82.1412 134.663 78.2004C134.663 72.7817 134.827 72.2892 136.796 71.3861C138.518 70.6472 139.503 70.7293 142.62 72.1249C144.67 73.0281 146.804 73.767 147.378 73.767C149.019 73.767 150.987 70.9758 151.561 67.9381C152.299 64.2436 154.022 61.4524 155.827 61.4524C156.647 61.4524 158.698 62.4377 160.339 63.5869C164.44 66.2965 166.819 65.8036 168.705 61.6988C171.822 55.0488 173.791 54.31 177.893 58.3325L180.518 60.8778Z" fill="#2C1B18"/>
<path fill-rule="evenodd" clip-rule="evenodd" d="M188.557 235.355C189.459 238.885 192.084 241.676 196.677 243.893C200.369 245.699 202.256 246.11 207.67 246.11C213.083 246.11 214.97 245.699 218.662 243.893C223.255 241.676 225.88 238.885 226.782 235.355L227.193 233.549H207.67H188.146L188.557 235.355Z" fill="#AF754C"/>
<path fill-rule="evenodd" clip-rule="evenodd" d="M184.783 268.358C185.85 275.172 191.017 282.151 197.416 285.435C202.091 287.898 210.705 288.39 215.627 286.502C223.01 283.629 229.408 275.911 230.556 268.358H184.783Z" fill="#3E1B1B"/>
<path fill-rule="evenodd" clip-rule="evenodd" d="M112.91 210.712C108.06 215.608 109.929 216.89 109.069 218.852C109.857 224.084 112.062 223.289 113 223.484C113.632 223.019 106.776 223.539 113.532 219.993L113.28 216.637L112.91 210.712Z" fill="#3E291B"/>
<path fill-rule="evenodd" clip-rule="evenodd" d="M304.427 225.017C309.77 220.667 308.048 219.193 309.112 217.334C308.886 212.048 306.609 212.602 305.697 212.308C305.019 212.703 311.892 212.918 304.796 215.722L304.69 219.086L304.427 225.017Z" fill="#3E291B"/>
<path d="M236.611 426.73L241.879 422.444C243.099 421.45 244.894 421.635 245.886 422.857C246.879 424.079 246.694 425.874 245.473 426.868L242.924 428.942L261.432 444.55C262.653 445.543 262.838 447.339 261.845 448.56C261.282 449.254 260.461 449.613 259.634 449.613C259.002 449.613 258.366 449.404 257.838 448.974L236.611 431.154C235.946 430.612 235.56 429.8 235.56 428.942C235.56 428.084 235.946 427.271 236.611 426.73Z" fill="#7B4AE2"/>
<path d="M260.002 400.539C261.514 400.551 262.731 401.788 262.719 403.302L262.483 446.894C262.471 448.407 261.235 449.625 259.723 449.613C259.34 449.61 258.976 449.528 258.646 449.383C257.674 448.957 256.997 447.98 257.006 446.85L257.242 403.258C257.254 401.744 258.49 400.527 260.002 400.539Z" fill="#7B4AE2"/>
<path d="M272.024 430.525L273.969 428.942L267.04 423.303C265.819 422.31 265.635 420.514 266.627 419.292C267.619 418.071 269.413 417.886 270.634 418.879L280.281 426.73C280.947 427.271 281.333 428.084 281.333 428.942C281.333 429.8 280.947 430.612 280.281 431.154L275.618 434.949C275.09 435.378 274.454 435.588 273.823 435.588C272.995 435.588 272.173 435.228 271.611 434.536C270.618 433.314 270.803 431.518 272.024 430.525Z" fill="#C83267"/>
<path fill-rule="evenodd" clip-rule="evenodd" d="M151.068 347.483C126.87 349.842 104.886 358.869 86.5931 373.915C70.8521 386.807 66.4606 397.053 54.9363 411.645C78.4172 436.027 109.992 456.686 144.425 468.096C167.392 475.659 183.06 478.099 207.669 478.099C232.279 478.099 247.946 475.659 270.915 468.096C305.652 456.978 334.912 438.757 361.289 412.606C343.223 389.268 335.788 373.972 306.679 359.6C294.457 353.501 280.101 349.109 269.11 347.97L263.933 347.504L263.687 347.498L263.122 351.387C260.661 369.93 237.447 383.593 208.49 383.593C179.534 383.593 156.729 370.092 153.775 351.305C153.202 347.564 152.955 347.239 151.069 347.483H151.068Z" fill="#090E16"/>
<path d="M256.05 418.853L254.275 415.884C253.865 415.196 254.182 414.435 254.985 414.185C255.788 413.934 256.772 414.289 257.183 414.977L258.041 416.414L268.992 410.653C269.694 410.267 270.722 410.459 271.288 411.082C271.61 411.435 271.713 411.851 271.615 412.215C271.539 412.492 271.346 412.74 271.043 412.907L258.528 419.527C258.146 419.737 257.645 419.784 257.164 419.653C256.683 419.522 256.274 419.228 256.05 418.853Z" fill="#F6F6F6"/>
<path d="M256.884 408.998C256.891 408.309 257.609 407.754 258.488 407.76L268.709 407.681C269.588 407.687 270.294 408.25 270.287 408.939C270.286 409.114 270.238 409.279 270.154 409.43C269.906 409.873 269.34 410.181 268.683 410.177C268.683 410.177 259.341 410.261 258.462 410.256C257.583 410.25 256.877 409.687 256.884 408.998Z" fill="#F6F6F6"/>
<path d="M265.38 398.777L253.888 406.836L255.307 411.443C255.5 412.222 255.051 413.168 254.306 413.557C253.56 413.947 252.8 413.631 252.607 412.853L251.085 406.701C250.981 406.276 251.064 405.779 251.313 405.347C251.562 404.915 251.95 404.594 252.37 404.472L265.248 395.73C265.581 395.633 265.892 395.673 266.141 395.817C266.467 396.006 266.686 396.374 266.707 396.851C266.743 397.692 266.149 398.554 265.38 398.777Z" fill="#7B4AE2"/>
</g>
<path d="M265.301 196.113C265.301 199.802 257.46 208.179 243.933 208.179C230.406 208.179 222.564 199.902 222.564 196.113C222.564 192.323 230.308 184.146 243.933 184.146C257.558 184.146 265.301 192.423 265.301 196.113Z" fill="#F6F6F6"/>
<path d="M243.933 189.93C254.617 189.93 261.675 195.016 264.223 199.005C264.909 197.908 265.301 196.91 265.301 196.113C265.301 192.423 257.558 184.146 243.933 184.146C230.308 184.146 222.564 192.423 222.564 196.113C222.564 196.91 222.956 197.908 223.642 199.005C226.191 195.115 233.248 189.93 243.933 189.93Z" fill="#E0E0E0"/>
<path d="M265.301 196.113C265.301 199.802 257.46 208.179 243.933 208.179C230.406 208.179 222.564 199.902 222.564 196.113C222.564 192.323 230.308 184.146 243.933 184.146C257.558 184.146 265.301 192.423 265.301 196.113Z" stroke="#252423" stroke-miterlimit="10" stroke-linecap="round" stroke-linejoin="round"/>
<path d="M243.933 186.938C256.773 186.938 264.223 195.115 264.321 198.905C265.007 197.808 265.301 196.91 265.301 196.113C265.301 192.423 257.558 184.146 243.933 184.146C230.308 184.146 222.564 192.423 222.564 196.113C222.564 196.91 222.858 197.808 223.544 198.905C223.642 195.215 231.092 186.938 243.933 186.938Z" fill="#3E1B1B" stroke="#252423" stroke-miterlimit="10" stroke-linecap="round" stroke-linejoin="round"/>
<path d="M243.933 205.088C248.805 205.088 252.755 201.069 252.755 196.113C252.755 191.156 248.805 187.138 243.933 187.138C239.061 187.138 235.111 191.156 235.111 196.113C235.111 201.069 239.061 205.088 243.933 205.088Z" fill="#58B858"/>
<path d="M250.01 189.73C251.088 191.126 251.774 192.921 251.774 194.816C251.774 199.204 248.246 202.894 243.835 202.894C239.424 202.894 235.895 199.304 235.895 194.816C235.895 192.921 236.581 191.126 237.659 189.73C236.189 191.326 235.111 193.62 235.111 196.113C235.111 201.099 239.032 205.088 243.933 205.088C248.834 205.088 252.755 201.099 252.755 196.113C252.755 193.62 251.676 191.326 250.01 189.73Z" fill="#5A9446"/>
<path d="M243.933 205.088C248.805 205.088 252.755 201.069 252.755 196.113C252.755 191.156 248.805 187.138 243.933 187.138C239.061 187.138 235.111 191.156 235.111 196.113C235.111 201.069 239.061 205.088 243.933 205.088Z" stroke="#252423" stroke-miterlimit="10" stroke-linecap="round" stroke-linejoin="round"/>
<path d="M243.933 200.101C246.098 200.101 247.853 198.316 247.853 196.113C247.853 193.91 246.098 192.124 243.933 192.124C241.767 192.124 240.012 193.91 240.012 196.113C240.012 198.316 241.767 200.101 243.933 200.101Z" fill="#3E1B1B" stroke="#252423" stroke-miterlimit="10" stroke-linecap="round" stroke-linejoin="round"/>
<path d="M240.6 195.016C242.278 195.016 243.639 193.632 243.639 191.924C243.639 190.217 242.278 188.833 240.6 188.833C238.922 188.833 237.561 190.217 237.561 191.924C237.561 193.632 238.922 195.016 240.6 195.016Z" fill="#F6F6F6" stroke="#252423" stroke-miterlimit="10" stroke-linecap="round" stroke-linejoin="round"/>
<path d="M184.813 196.113C184.813 199.802 176.971 208.179 163.444 208.179C149.917 208.179 142.075 199.902 142.075 196.113C142.075 192.323 149.819 184.146 163.444 184.146C177.069 184.146 184.813 192.423 184.813 196.113Z" fill="#F6F6F6"/>
<path d="M163.444 189.93C174.128 189.93 181.186 195.016 183.734 199.005C184.42 197.908 184.813 196.91 184.813 196.113C184.813 192.423 177.069 184.146 163.444 184.146C149.819 184.146 142.075 192.423 142.075 196.113C142.075 196.91 142.467 197.908 143.153 199.005C145.702 195.115 152.76 189.93 163.444 189.93Z" fill="#E0E0E0"/>
<path d="M184.813 196.113C184.813 199.802 176.971 208.179 163.444 208.179C149.917 208.179 142.075 199.902 142.075 196.113C142.075 192.323 149.819 184.146 163.444 184.146C177.069 184.146 184.813 192.423 184.813 196.113Z" stroke="#252423" stroke-miterlimit="10" stroke-linecap="round" stroke-linejoin="round"/>
<path d="M163.444 186.938C176.285 186.938 183.734 195.115 183.832 198.905C184.518 197.808 184.813 196.91 184.813 196.113C184.813 192.423 177.069 184.146 163.444 184.146C149.819 184.146 142.075 192.423 142.075 196.113C142.075 196.91 142.369 197.808 143.055 198.905C143.153 195.215 150.603 186.938 163.444 186.938Z" fill="#3E1B1B" stroke="#252423" stroke-miterlimit="10" stroke-linecap="round" stroke-linejoin="round"/>
<path d="M163.444 205.088C168.316 205.088 172.266 201.069 172.266 196.113C172.266 191.156 168.316 187.138 163.444 187.138C158.572 187.138 154.622 191.156 154.622 196.113C154.622 201.069 158.572 205.088 163.444 205.088Z" fill="#58B858"/>
<path d="M169.521 189.73C170.599 191.126 171.286 192.921 171.286 194.816C171.286 199.204 167.757 202.894 163.346 202.894C158.935 202.894 155.406 199.304 155.406 194.816C155.406 192.921 156.092 191.126 157.17 189.73C155.7 191.326 154.622 193.62 154.622 196.113C154.622 201.099 158.543 205.088 163.444 205.088C168.345 205.088 172.266 201.099 172.266 196.113C172.266 193.62 171.187 191.326 169.521 189.73Z" fill="#5A9446"/>
<path d="M163.444 205.088C168.316 205.088 172.266 201.069 172.266 196.113C172.266 191.156 168.316 187.138 163.444 187.138C158.572 187.138 154.622 191.156 154.622 196.113C154.622 201.069 158.572 205.088 163.444 205.088Z" stroke="#252423" stroke-miterlimit="10" stroke-linecap="round" stroke-linejoin="round"/>
<path d="M163.444 200.101C165.609 200.101 167.365 198.316 167.365 196.113C167.365 193.91 165.609 192.124 163.444 192.124C161.278 192.124 159.523 193.91 159.523 196.113C159.523 198.316 161.278 200.101 163.444 200.101Z" fill="#3E1B1B" stroke="#252423" stroke-miterlimit="10" stroke-linecap="round" stroke-linejoin="round"/>
<path d="M160.111 195.016C161.789 195.016 163.15 193.632 163.15 191.924C163.15 190.217 161.789 188.833 160.111 188.833C158.433 188.833 157.073 190.217 157.073 191.924C157.073 193.632 158.433 195.016 160.111 195.016Z" fill="#F6F6F6" stroke="#252423" stroke-miterlimit="10" stroke-linecap="round" stroke-linejoin="round"/>
<defs>
<filter id="filter0_d_479_523" x="310.986" y="179.028" width="151.014" height="151.1" filterUnits="userSpaceOnUse" color-interpolation-filters="sRGB">
<feFlood flood-opacity="0" result="BackgroundImageFix"/>
<feColorMatrix in="SourceAlpha" type="matrix" values="0 0 0 0 0 0 0 0 0 0 0 0 0 0 0 0 0 0 127 0" result="hardAlpha"/>
<feOffset dy="4"/>
<feGaussianBlur stdDeviation="25"/>
<feComposite in2="hardAlpha" operator="out"/>
<feColorMatrix type="matrix" values="0 0 0 0 0 0 0 0 0 0 0 0 0 0 0 0 0 0 0.5 0"/>
<feBlend mode="normal" in2="BackgroundImageFix" result="effect1_dropShadow_479_523"/>
<feBlend mode="normal" in="SourceGraphic" in2="effect1_dropShadow_479_523" result="shape"/>
</filter>
<filter id="filter1_d_479_523" x="-34" y="113.876" width="151.014" height="151.1" filterUnits="userSpaceOnUse" color-interpolation-filters="sRGB">
<feFlood flood-opacity="0" result="BackgroundImageFix"/>
<feColorMatrix in="SourceAlpha" type="matrix" values="0 0 0 0 0 0 0 0 0 0 0 0 0 0 0 0 0 0 127 0" result="hardAlpha"/>
<feOffset dy="4"/>
<feGaussianBlur stdDeviation="25"/>
<feComposite in2="hardAlpha" operator="out"/>
<feColorMatrix type="matrix" values="0 0 0 0 0 0 0 0 0 0 0 0 0 0 0 0 0 0 0.5 0"/>
<feBlend mode="normal" in2="BackgroundImageFix" result="effect1_dropShadow_479_523"/>
<feBlend mode="normal" in="SourceGraphic" in2="effect1_dropShadow_479_523" result="shape"/>
</filter>
<filter id="filter2_d_479_523" x="-34" y="277.395" width="151.014" height="151.1" filterUnits="userSpaceOnUse" color-interpolation-filters="sRGB">
<feFlood flood-opacity="0" result="BackgroundImageFix"/>
<feColorMatrix in="SourceAlpha" type="matrix" values="0 0 0 0 0 0 0 0 0 0 0 0 0 0 0 0 0 0 127 0" result="hardAlpha"/>
<feOffset dy="4"/>
<feGaussianBlur stdDeviation="25"/>
<feComposite in2="hardAlpha" operator="out"/>
<feColorMatrix type="matrix" values="0 0 0 0 0 0 0 0 0 0 0 0 0 0 0 0 0 0 0.5 0"/>
<feBlend mode="normal" in2="BackgroundImageFix" result="effect1_dropShadow_479_523"/>
<feBlend mode="normal" in="SourceGraphic" in2="effect1_dropShadow_479_523" result="shape"/>
</filter>
<filter id="filter3_f_479_523" x="-31.863" y="0.725433" width="463.478" height="464.085" filterUnits="userSpaceOnUse" color-interpolation-filters="sRGB">
<feFlood flood-opacity="0" result="BackgroundImageFix"/>
<feBlend mode="normal" in="SourceGraphic" in2="BackgroundImageFix" result="shape"/>
<feGaussianBlur stdDeviation="25" result="effect1_foregroundBlur_479_523"/>
</filter>
<filter id="filter4_i_479_523" x="54.9363" y="54.064" width="306.353" height="428.035" filterUnits="userSpaceOnUse" color-interpolation-filters="sRGB">
<feFlood flood-opacity="0" result="BackgroundImageFix"/>
<feBlend mode="normal" in="SourceGraphic" in2="BackgroundImageFix" result="shape"/>
<feColorMatrix in="SourceAlpha" type="matrix" values="0 0 0 0 0 0 0 0 0 0 0 0 0 0 0 0 0 0 127 0" result="hardAlpha"/>
<feOffset dy="4"/>
<feGaussianBlur stdDeviation="2"/>
<feComposite in2="hardAlpha" operator="arithmetic" k2="-1" k3="1"/>
<feColorMatrix type="matrix" values="0 0 0 0 0 0 0 0 0 0 0 0 0 0 0 0 0 0 0.25 0"/>
<feBlend mode="normal" in2="shape" result="effect1_innerShadow_479_523"/>
</filter>
<clipPath id="clip0_479_523">
<rect width="25.5072" height="25.5498" fill="white" transform="translate(373.739 237.803)"/>
</clipPath>
<clipPath id="clip1_479_523">
<rect width="25.5072" height="25.5498" fill="white" transform="translate(28.7537 336.17)"/>
</clipPath>
</defs>
</svg>
