<svg width="64" height="65" viewBox="0 0 64 65" fill="none" xmlns="http://www.w3.org/2000/svg">
<path d="M61.7364 27.3509L57.7797 25.3452V15.8563C57.7766 13.0115 56.6694 10.284 54.7009 8.27235C52.7324 6.2607 50.0635 5.12916 47.2797 5.12598H16.4185C13.6347 5.12916 10.9658 6.2607 8.99734 8.27235C7.02889 10.284 5.92164 13.0115 5.91852 15.8563V25.3833L2.14931 27.4492C1.47804 27.8168 0.921061 28.3694 0.541605 29.0442C0.162149 29.719 -0.0245864 30.489 0.002596 31.2668C0.0297784 32.0446 0.26979 32.7991 0.695385 33.4445C1.12098 34.09 1.71511 34.6005 2.41034 34.9183L5.9195 36.5228V47.3956C5.92262 50.2405 7.02987 52.968 8.99833 54.9796C10.9668 56.9913 13.6357 58.1228 16.4195 58.126H47.2817C50.0655 58.1228 52.7344 56.9913 54.7029 54.9796C56.6713 52.968 57.7786 50.2405 57.7817 47.3956V36.5449L61.5293 34.9063C62.2445 34.5935 62.8571 34.0779 63.2946 33.4206C63.7322 32.7632 63.9764 31.9916 63.9984 31.1969C64.0204 30.4022 63.8192 29.6177 63.4187 28.9361C63.0182 28.2546 62.4351 27.7045 61.7383 27.3509H61.7364ZM59.9828 31.2178L55.0448 33.3769C54.6915 33.5315 54.3904 33.7886 54.1788 34.1165C53.9672 34.4443 53.8544 34.8284 53.8545 35.2212V47.3956C53.8529 49.1771 53.1597 50.8852 51.9271 52.1449C50.6944 53.4046 49.023 54.113 47.2797 54.1146H16.4185C14.6753 54.113 13.0039 53.4046 11.7712 52.1449C10.5385 50.8852 9.84532 49.1771 9.84376 47.3956V35.2212C9.84385 34.834 9.73428 34.4551 9.52829 34.1301C9.32229 33.8052 9.02867 33.5481 8.68287 33.39L4.01184 31.2559C3.98651 31.2444 3.96486 31.2259 3.94934 31.2024C3.93381 31.1789 3.92504 31.1515 3.92402 31.1232C3.923 31.0949 3.92976 31.0668 3.94355 31.0423C3.95734 31.0177 3.9776 30.9976 4.00202 30.9842L8.81044 28.3527C9.12321 28.1814 9.38465 27.9265 9.56696 27.6154C9.74926 27.3042 9.8456 26.9484 9.84572 26.5857V15.8553C9.84728 14.0738 10.5405 12.3658 11.7731 11.106C13.0058 9.84633 14.6772 9.13792 16.4205 9.13633H47.2827C49.0259 9.13792 50.6973 9.84633 51.93 11.106C53.1627 12.3658 53.8559 14.0738 53.8574 15.8553V26.5857C53.8575 26.959 53.9594 27.3249 54.1518 27.6422C54.3443 27.9595 54.6196 28.2157 54.9467 28.3818L59.9936 30.943C60.0189 30.9559 60.0401 30.976 60.0546 31.0008C60.0691 31.0256 60.0764 31.0541 60.0756 31.083C60.0748 31.1119 60.0659 31.1399 60.0499 31.1638C60.034 31.1877 60.0117 31.2065 59.9857 31.2178H59.9828Z" fill="#7B4AE2" fill-opacity="0.5"/>
<path d="M40.9994 25.8411C40.997 23.5305 40.1809 21.3153 38.73 19.6815C37.2792 18.0477 35.312 17.1286 33.2602 17.126H23.7873C23.3133 17.126 22.8587 17.338 22.5235 17.7155C22.1883 18.0929 22 18.6049 22 19.1387V32.5435C22 32.5716 22 32.5998 22 32.628C22 32.6562 22 32.6843 22 32.7125V46.1132C22 46.6471 22.1883 47.159 22.5235 47.5365C22.8587 47.9139 23.3133 48.126 23.7873 48.126H33.2602C34.8617 48.127 36.4239 47.5682 37.7313 46.5268C39.0388 45.4855 40.027 44.0128 40.5596 42.3121C41.0923 40.6114 41.143 38.7664 40.7049 37.0318C40.2668 35.2972 39.3614 33.7585 38.1137 32.628C39.015 31.8119 39.7422 30.7785 40.2416 29.6039C40.741 28.4293 41 27.1434 40.9994 25.8411ZM25.5765 21.1555H33.262C34.3665 21.1555 35.4257 21.6495 36.2067 22.529C36.9877 23.4085 37.4265 24.6013 37.4265 25.8451C37.4265 27.0889 36.9877 28.2817 36.2067 29.1612C35.4257 30.0407 34.3665 30.5348 33.262 30.5348H25.5765V21.1555ZM33.262 44.1086H25.5765V34.7293H33.262C34.3665 34.7293 35.4257 35.2234 36.2067 36.1028C36.9877 36.9823 37.4265 38.1752 37.4265 39.4189C37.4265 40.6627 36.9877 41.8555 36.2067 42.735C35.4257 43.6145 34.3665 44.1086 33.262 44.1086Z" fill="#7B4AE2" fill-opacity="0.5"/>
</svg>
