<svg width="64" height="65" viewBox="0 0 64 65" fill="none" xmlns="http://www.w3.org/2000/svg">
<path fill-rule="evenodd" clip-rule="evenodd" d="M-6.10352e-05 0.554443L5.82426 58.1565L31.9612 64.5544L58.1694 58.147L63.9999 0.554443H-6.10352e-05ZM53.2049 54.5228L32.0537 59.6536L32.0537 52.322L31.99 52.3352L15.5505 48.3215L14.4281 37.2364H22.4711L23.055 42.8632L31.9918 44.9794L32.0537 44.9713L32.0537 33.5689H14.0334V33.5687L13.3318 26.5146V26.5144L32.0537 19.4487L32.0537 18.9604H12.6193L11.9094 11.9061H31.9724H32.0537L32.0537 5.35131H58.1606L53.2049 54.5228ZM32.0532 26.5146H32.0537V26.5144L32.0532 26.5146Z" fill="#7B4AE2" fill-opacity="0.5"/>
<path fill-rule="evenodd" clip-rule="evenodd" d="M33.345 18.9605L32.0537 19.4486V26.514V26.5143V33.5683H41.838L40.9487 42.7912L32.0537 44.9774V52.3276L48.4386 48.3138L50.5962 26.514H32.0544L51.3236 18.9605L52.0118 11.9062H32.0537V18.8721V18.9605H33.345Z" fill="#7B4AE2" fill-opacity="0.5"/>
</svg>
