<svg width="64" height="65" viewBox="0 0 64 65" fill="none" xmlns="http://www.w3.org/2000/svg">
<path fill-rule="evenodd" clip-rule="evenodd" d="M62.7929 29.7034L34.8495 1.76158C33.2414 0.152064 30.6313 0.152064 29.0211 1.76158L23.2187 7.56412L30.5793 14.9249C32.2899 14.347 34.2512 14.7346 35.6149 16.0983C36.985 17.4705 37.3698 19.4487 36.7778 21.1649L43.8716 28.2589C45.5878 27.6676 47.5681 28.0503 48.9388 29.4232C50.8545 31.3382 50.8545 34.442 48.9388 36.3584C47.0225 38.2748 43.9187 38.2748 42.0016 36.3584C40.5607 34.916 40.2046 32.7995 40.9342 31.0243L34.3186 24.4086L34.3179 41.8183C34.7849 42.05 35.2259 42.3583 35.6149 42.7459C37.5306 44.6609 37.5306 47.7648 35.6149 49.6826C33.6986 51.5983 30.5934 51.5983 28.6798 49.6826C26.7642 47.7648 26.7642 44.6609 28.6798 42.7459C29.1531 42.2733 29.7008 41.9159 30.2851 41.6757V24.1038C29.7008 23.865 29.1538 23.5097 28.6798 23.0336C27.2283 21.5842 26.8793 19.4543 27.623 17.672L20.3677 10.4152L1.20764 29.5742C-0.402547 31.1851 -0.402547 33.7953 1.20764 35.4048L29.151 63.3473C30.7598 64.9568 33.3692 64.9568 34.9801 63.3473L62.7929 35.5347C64.4024 33.9245 64.4024 31.3129 62.7929 29.7034Z" fill="#7B4AE2" fill-opacity="0.5"/>
</svg>
