<svg width="35" height="33" viewBox="0 0 35 33" fill="none" xmlns="http://www.w3.org/2000/svg">
<path fill-rule="evenodd" clip-rule="evenodd" d="M17.8931 0.0736389C8.55084 0.0736389 0.983994 7.41474 0.983994 16.4783C0.983994 23.7374 5.82424 29.8687 12.5456 32.0423C13.3911 32.1858 13.7081 31.6937 13.7081 31.2631C13.7081 30.8735 13.687 29.5816 13.687 28.2077C9.43857 28.9664 8.33947 27.2029 8.00129 26.2801C7.81106 25.8085 6.98674 24.3526 6.2681 23.963C5.67628 23.6554 4.83082 22.8967 6.24697 22.8762C7.57856 22.8557 8.5297 24.0655 8.84675 24.5577C10.3686 27.0389 12.7993 26.3417 13.7715 25.911C13.9195 24.8447 14.3634 24.127 14.8495 23.7169C11.0872 23.3068 7.15583 21.8919 7.15583 15.6171C7.15583 13.8331 7.81106 12.3567 8.88902 11.2083C8.71993 10.7982 8.12811 9.11673 9.05811 6.86108C9.05811 6.86108 10.4743 6.43046 13.7081 8.54257C15.0609 8.17346 16.4981 7.98891 17.9354 7.98891C19.3727 7.98891 20.81 8.17346 22.1627 8.54257C25.3966 6.40995 26.8127 6.86108 26.8127 6.86108C27.7427 9.11673 27.1509 10.7982 26.9818 11.2083C28.0598 12.3567 28.715 13.8126 28.715 15.6171C28.715 21.9124 24.7625 23.3068 21.0002 23.7169C21.6131 24.2296 22.1416 25.2138 22.1416 26.7518C22.1416 28.9459 22.1204 30.7094 22.1204 31.2631C22.1204 31.6937 22.4375 32.2063 23.2829 32.0423C29.962 29.8687 34.8023 23.7169 34.8023 16.4783C34.8023 7.41474 27.2354 0.0736389 17.8931 0.0736389Z" fill="#888888"/>
</svg>
