<svg width="64" height="65" viewBox="0 0 64 65" fill="none" xmlns="http://www.w3.org/2000/svg">
<path d="M19.0933 46.7345H17.1733C17.1022 43.4989 16.9156 40.4545 16.6133 37.6012L13.6933 46.7345H12.2133L9.33333 37.6012C9.12 40.33 8.98667 43.3745 8.93333 46.7345H7.14667C7.25333 42.6545 7.53333 38.8412 7.98667 35.2678H10.3733L13.1333 43.6945L16 35.2678H18.28C18.7689 39.4456 19.0622 43.2678 19.16 46.7345M27.4133 38.2812C26.9785 41.5297 25.9287 44.6656 24.32 47.5212C24.0071 48.1362 23.5433 48.6619 22.972 49.049C22.4007 49.4361 21.7406 49.6719 21.0533 49.7345C20.6481 49.7161 20.2499 49.6211 19.88 49.4545V48.4278C20.1462 48.4505 20.4138 48.4505 20.68 48.4278C21.1651 48.4458 21.6398 48.2844 22.0133 47.9745C22.2105 47.8138 22.3684 47.6101 22.4747 47.379C22.581 47.1479 22.633 46.8955 22.6267 46.6412C22.5329 46.0297 22.372 45.4306 22.1467 44.8545L20 38.2812H21.8933L23.4 43.1612C23.6806 43.9072 23.8251 44.6975 23.8267 45.4945C24.6799 43.1647 25.2615 40.7442 25.56 38.2812H27.4133ZM52.9467 46.7345H47.5067V35.2678H49.3333V45.3212H52.9467V46.7345Z" fill="#7B4AE2" fill-opacity="0.5"/>
<path fill-rule="evenodd" clip-rule="evenodd" d="M46.08 47.0146L44 45.9746C44.1896 45.8183 44.3638 45.6442 44.52 45.4546C45.5035 44.1062 45.9761 42.4523 45.8533 40.7879C45.8533 37.0012 44.36 35.0946 41.3867 35.0946C40.7443 35.0583 40.1022 35.1705 39.5102 35.4225C38.9183 35.6746 38.3924 36.0597 37.9733 36.5479C36.9907 37.8916 36.5181 39.541 36.64 41.2012C36.5125 42.7695 36.9318 44.3336 37.8267 45.6279C38.2381 46.0823 38.7467 46.4381 39.3145 46.6689C39.8823 46.8997 40.4949 46.9997 41.1067 46.9612C41.6159 46.9668 42.1232 46.8995 42.6133 46.7612L45.3333 48.2946L46.08 47.0146ZM39.2533 44.4412C38.7031 43.325 38.4593 42.0826 38.5467 40.8412C38.5467 37.9479 39.4267 36.5079 41.2133 36.5079C41.6119 36.4808 42.0103 36.5634 42.3652 36.7467C42.7202 36.9301 43.0181 37.2072 43.2267 37.5479C43.7748 38.6506 44.0187 39.8795 43.9333 41.1079C43.9333 44.0146 43.0533 45.4812 41.2667 45.4812C40.8681 45.5083 40.4697 45.4257 40.1148 45.2424C39.7598 45.059 39.4619 44.782 39.2533 44.4412Z" fill="#7B4AE2" fill-opacity="0.5"/>
<path d="M35.8133 43.5212C35.8252 43.9734 35.7356 44.4226 35.551 44.8356C35.3664 45.2486 35.0915 45.615 34.7467 45.9078C33.9408 46.5653 32.9185 46.8981 31.88 46.8412C30.7122 46.8253 29.5772 46.4531 28.6267 45.7745L29.1067 44.7878C29.8656 45.2014 30.7097 45.4341 31.5733 45.4678C32.1503 45.4969 32.7212 45.3378 33.2 45.0145C33.4029 44.8588 33.5648 44.656 33.6717 44.4237C33.7785 44.1914 33.8272 43.9365 33.8133 43.6812C33.8133 43.0012 33.3467 42.4145 32.48 41.9345L30.0667 40.6012C29.6465 40.3509 29.3011 39.9925 29.0666 39.5634C28.832 39.1342 28.717 38.65 28.7333 38.1612C28.7167 37.7367 28.7955 37.3139 28.964 36.9239C29.1324 36.5339 29.3862 36.1867 29.7067 35.9078C30.4108 35.3191 31.3096 35.0147 32.2267 35.0545C33.2563 35.048 34.2658 35.3398 35.1333 35.8945L34.6933 36.8812C33.995 36.5767 33.2418 36.4179 32.48 36.4145C32.0003 36.3877 31.527 36.5344 31.1467 36.8278C30.9883 36.9626 30.8609 37.1302 30.7735 37.3189C30.686 37.5077 30.6405 37.7131 30.64 37.9212C30.64 38.6012 31.12 39.1878 31.9733 39.6812C32.8267 40.1745 34.44 41.0145 34.44 41.0145C34.8631 41.2582 35.2112 41.6133 35.4463 42.0412C35.6814 42.4691 35.7945 42.9534 35.7733 43.4412" fill="#7B4AE2" fill-opacity="0.5"/>
<path fill-rule="evenodd" clip-rule="evenodd" d="M60.3644 29.8914C58.8962 29.7907 57.4236 30.0084 56.0439 30.5302C55.7198 30.6844 55.1798 30.6844 55.1366 31.1028C55.0934 31.5213 55.331 31.5874 55.4822 31.8517C55.8061 32.3671 56.1987 32.8341 56.6488 33.2393C57.124 33.6138 57.5993 33.9662 58.0961 34.2966C58.9603 34.8472 59.954 35.1555 60.8181 35.7062L62.2871 36.7854C62.5463 36.9616 62.6976 37.27 63 37.3801C62.8488 37.1599 62.8056 36.8735 62.6544 36.6313C62.5031 36.389 62.2007 36.2128 61.9847 35.9705C61.3108 35.1296 60.5256 34.3884 59.6516 33.7679C58.9171 33.2614 57.3617 32.5565 57.0592 31.7196C57.5889 31.6497 58.1102 31.5242 58.6146 31.3451C59.3707 31.1469 60.062 31.191 60.7749 30.9927L61.8334 30.6623V30.2659C61.4446 29.8474 61.1422 29.2968 60.7317 28.9223C59.5686 27.8833 58.3261 26.9406 57.016 26.1031C56.3247 25.6405 55.4174 25.3542 54.6829 24.9577C54.4237 24.8256 53.97 24.7595 53.8188 24.5172C53.4419 23.9694 53.13 23.3779 52.8899 22.7552C52.2418 21.4997 51.6153 20.1121 51.0536 18.7685C50.7204 17.8809 50.3381 17.0132 49.9087 16.1695C47.8435 12.5732 44.8561 9.61868 41.2675 7.62363C40.3599 7.16756 39.392 6.84852 38.3943 6.67653H36.7093C36.3364 6.41688 35.9826 6.12978 35.6508 5.81754C34.3762 4.98057 31.071 3.1965 30.1421 5.55323C29.5372 7.05097 31.0278 8.50465 31.5462 9.25352C31.9862 9.78342 32.37 10.3593 32.6912 10.9715C32.8424 11.368 32.9072 11.7865 33.0584 12.1829C33.3795 13.2361 33.7693 14.2662 34.225 15.2665C34.4698 15.7532 34.7439 16.224 35.0459 16.6761C35.2403 16.9184 35.5428 17.0285 35.6076 17.447C35.3707 17.9975 35.1968 18.574 35.0891 19.165C34.3 21.7139 34.533 24.4777 35.7372 26.8519C36.1044 27.4246 36.9686 28.68 38.1135 28.1955C39.2585 27.7109 38.8912 26.4775 39.172 25.3542C39.172 25.0679 39.172 24.8916 39.3449 24.6934C39.6473 25.3322 39.9714 25.9489 40.2522 26.5876C41.0552 27.7625 42.0402 28.7965 43.1686 29.6492C43.7086 30.0676 44.1407 30.7725 44.8104 31.0147C44.6808 30.8165 44.4647 30.7284 44.2919 30.5522C43.8633 30.134 43.4728 29.6769 43.1254 29.1866C42.1746 27.8748 41.3362 26.4821 40.6194 25.0238C40.2522 24.319 39.9497 23.5261 39.6473 22.8212C39.5177 22.5569 39.5177 22.1385 39.2801 22.0063C38.8742 22.4802 38.5194 22.9971 38.2215 23.5481C37.8546 24.6651 37.6437 25.8292 37.595 27.0061H37.487C36.7741 26.8299 36.5365 26.081 36.2557 25.4423C35.5627 23.4725 35.4947 21.3305 36.0612 19.3192C36.2125 18.8566 36.8821 17.3369 36.6229 16.8744C36.3637 16.4118 36.0396 16.1916 35.7804 15.8612C35.4722 15.394 35.2048 14.9002 34.9811 14.3855C34.441 13.108 34.1818 11.6984 33.5985 10.3988C33.2647 9.78555 32.8894 9.19677 32.4752 8.6368C31.9994 8.09185 31.5863 7.49328 31.2438 6.85274C31.1142 6.61046 30.963 6.19197 31.1358 5.92766C31.1552 5.85003 31.196 5.77971 31.2535 5.72505C31.3109 5.67039 31.3825 5.63369 31.4598 5.61931C31.7623 5.37703 32.5832 5.61931 32.864 5.83956C33.6263 6.13219 34.3515 6.51669 35.0243 6.98489C35.3483 7.20514 35.6724 7.64566 36.0828 7.75578H36.5581C37.271 7.90996 38.0919 7.75578 38.7184 7.99806C39.852 8.38776 40.9333 8.92051 41.9372 9.5839C44.906 11.5151 47.3208 14.2127 48.9365 17.403C49.2174 17.9316 49.3254 18.4161 49.563 18.9668C50.0383 20.0901 50.6216 21.1693 51.0968 22.3367C51.5211 23.4124 52.057 24.4388 52.6954 25.3982C53.0195 25.8608 54.3805 26.1251 54.9853 26.3674C55.5902 26.6096 56.1303 26.7638 56.5191 27.0061C57.2968 27.4907 58.0529 28.0413 58.6794 28.5699C59.0467 28.8562 60.17 29.4069 60.2348 29.8694" fill="#7B4AE2" fill-opacity="0.5"/>
<path fill-rule="evenodd" clip-rule="evenodd" d="M39.529 13.3802C39.3507 13.379 39.173 13.3963 39 13.4317C39.1243 13.5881 39.2633 13.7363 39.4156 13.875C39.529 14.0399 39.6172 14.2152 39.7179 14.3801C39.817 14.3182 39.8947 14.2362 39.9433 14.1422C39.9918 14.0482 40.0097 13.9454 39.995 13.8441C39.9399 13.7742 39.8895 13.7019 39.8439 13.6276C39.7557 13.5142 39.592 13.4627 39.4786 13.3802" fill="#7B4AE2" fill-opacity="0.5"/>
<path d="M56.5733 46.7344H56.8533V45.321H56.4267L56.08 46.281L55.6933 45.321H55.28V46.7344H55.5467V45.6677L55.9467 46.7344H56.16L56.56 45.6677L56.5733 46.7344ZM54.2533 46.7344H54.56V45.561H54.96V45.321H53.84V45.561H54.2533V46.7344Z" fill="#7B4AE2" fill-opacity="0.5"/>
</svg>
