<svg width="64" height="65" viewBox="0 0 64 65" fill="none" xmlns="http://www.w3.org/2000/svg">
<path fill-rule="evenodd" clip-rule="evenodd" d="M32.0567 63.9885C31.197 63.9885 30.3946 63.7593 29.6496 63.3581L22.0271 58.8305C20.8808 58.2 21.454 57.9708 21.7978 57.8561C23.3452 57.3403 23.6318 57.2257 25.2365 56.3087C25.4085 56.1941 25.6377 56.2514 25.8097 56.366L31.6555 59.8621C31.8847 59.9767 32.1713 59.9767 32.3432 59.8621L55.2107 46.623C55.4399 46.5084 55.5546 46.2791 55.5546 45.9926V19.5718C55.5546 19.2852 55.4399 19.056 55.2107 18.9414L32.3432 5.75961C32.114 5.64498 31.8274 5.64498 31.6555 5.75961L8.78802 18.9414C8.55877 19.056 8.44415 19.3425 8.44415 19.5718V45.9926C8.44415 46.2218 8.55877 46.5084 8.78802 46.623L15.035 50.2337C18.4164 51.953 20.537 49.9471 20.537 47.9412V21.8643C20.537 21.5204 20.8235 21.1765 21.2247 21.1765H24.1476C24.4915 21.1765 24.8354 21.4631 24.8354 21.8643V47.9412C24.8354 52.4688 22.3709 55.1052 18.0726 55.1052C16.7544 55.1052 15.7228 55.1052 12.7999 53.6724L6.7821 50.2337C5.29199 49.374 4.375 47.7692 4.375 46.0499V19.6291C4.375 17.9097 5.29199 16.305 6.7821 15.4453L29.6496 2.20627C31.0824 1.4039 33.031 1.4039 34.4638 2.20627L57.3312 15.4453C58.8213 16.305 59.7383 17.9097 59.7383 19.6291V46.0499C59.7383 47.7692 58.8213 49.374 57.3312 50.2337L34.4638 63.4727C33.7187 63.8166 32.859 63.9885 32.0567 63.9885ZM39.106 45.8206C29.0764 45.8206 27.0132 41.2357 27.0132 37.3385C27.0132 36.9946 27.2998 36.6507 27.701 36.6507H30.6812C31.025 36.6507 31.3116 36.88 31.3116 37.2239C31.7701 40.2614 33.0883 41.7515 39.1633 41.7515C43.9775 41.7515 46.0408 40.6626 46.0408 38.0835C46.0408 36.5934 45.4677 35.5045 37.9598 34.7594C31.7128 34.129 27.8156 32.7535 27.8156 27.7674C27.8156 23.1251 31.7128 20.3741 38.2463 20.3741C45.5823 20.3741 49.1929 22.8959 49.6514 28.3978C49.6514 28.5698 49.5941 28.7417 49.4795 28.9136C49.3649 29.0282 49.1929 29.1429 49.021 29.1429H46.0408C45.7542 29.1429 45.4677 28.9136 45.4103 28.6271C44.7226 25.4749 42.9459 24.4433 38.2463 24.4433C32.9737 24.4433 32.3432 26.2773 32.3432 27.6528C32.3432 29.3148 33.0883 29.8306 40.195 30.7476C47.2443 31.6646 50.5684 32.9828 50.5684 37.9116C50.5111 42.955 46.3846 45.8206 39.106 45.8206Z" fill="#7B4AE2"/>
</svg>
