<svg width="64" height="65" viewBox="0 0 64 65" fill="none" xmlns="http://www.w3.org/2000/svg">
<path d="M16.075 23.4418H4.85191L0 48.8545H5.76289L6.97657 42.2672H12.4367C17.5914 42.5803 23.3571 38.1878 23.3571 30.6582C23.3571 26.2657 20.9297 23.7549 16.0778 23.4418H16.075ZM11.8285 37.5616H8.18743L9.70383 28.1503H13.6476C15.7694 28.1503 17.2887 29.0926 17.2887 30.9743C16.9859 36.3091 14.5586 37.2485 11.8285 37.5616ZM36.3964 23.4418H30.9363L32.1499 16.8545H26.3871L21.5351 42.2672H27.298L30.0281 28.1503H34.5773C36.702 28.1503 36.702 29.0926 36.3964 30.6612L34.2746 42.2701H40.3402L42.462 29.4058C43.0675 26.2687 41.2483 23.7549 36.3964 23.4418ZM56.7179 23.4418H45.4948L40.6429 48.8545H46.4058L47.6195 42.2672H53.0797C58.2371 42.5803 64 38.1878 64 30.6582C64 26.2657 61.5698 23.7549 56.7179 23.4418ZM52.4714 37.5616H48.8303L50.3467 28.1503H54.2905C56.4152 28.1503 57.9316 29.0926 57.9316 30.9743C57.6289 36.3091 55.2015 37.2485 52.4714 37.5616Z" fill="#7B4AE2" fill-opacity="0.5"/>
</svg>
