<svg width="45" height="41" viewBox="0 0 45 41" fill="none" xmlns="http://www.w3.org/2000/svg">
<path d="M7.5 13.3391H21.25" stroke="#7B4AE2" stroke-linecap="round" stroke-linejoin="round"/>
<path d="M28.75 13.3391H42.5" stroke="#7B4AE2" stroke-linecap="round" stroke-linejoin="round"/>
<path d="M25 17.0891C27.0711 17.0891 28.75 15.4102 28.75 13.3391C28.75 11.268 27.0711 9.58911 25 9.58911C22.9289 9.58911 21.25 11.268 21.25 13.3391C21.25 15.4102 22.9289 17.0891 25 17.0891Z" stroke="#7B4AE2" stroke-linecap="round" stroke-linejoin="round"/>
<path d="M11.25 32.0891C13.3211 32.0891 15 30.4102 15 28.3391C15 26.268 13.3211 24.5891 11.25 24.5891C9.17893 24.5891 7.5 26.268 7.5 28.3391C7.5 30.4102 9.17893 32.0891 11.25 32.0891Z" stroke="#7B4AE2" stroke-linecap="round" stroke-linejoin="round"/>
<path d="M38.75 32.0891C40.8211 32.0891 42.5 30.4102 42.5 28.3391C42.5 26.268 40.8211 24.5891 38.75 24.5891C36.6789 24.5891 35 26.268 35 28.3391C35 30.4102 36.6789 32.0891 38.75 32.0891Z" stroke="#7B4AE2" stroke-linecap="round" stroke-linejoin="round"/>
<path d="M28.7188 13.8547C31.1934 14.5495 33.4241 15.9232 35.1583 17.8203C36.8925 19.7174 38.0609 22.0622 38.5312 24.5891" stroke="#7B4AE2" stroke-linecap="round" stroke-linejoin="round"/>
<path d="M11.4688 24.5891C11.9391 22.0622 13.1075 19.7174 14.8417 17.8203C16.5759 15.9232 18.8066 14.5495 21.2812 13.8547" stroke="#7B4AE2" stroke-linecap="round" stroke-linejoin="round"/>
<circle cx="12.5" cy="22.0891" r="12.5" fill="#7B4AE2" fill-opacity="0.2"/>
</svg>
