<svg width="40" height="41" viewBox="0 0 40 41" fill="none" xmlns="http://www.w3.org/2000/svg">
<path fill-rule="evenodd" clip-rule="evenodd" d="M20.4813 10.1747C17.7618 10.1747 15.5487 12.4735 15.5487 15.2894C15.5487 16.8741 16.265 18.276 17.364 19.215C16.1028 19.3145 14.8956 19.7839 13.885 20.5677C13.4923 20.4631 13.0889 20.4078 12.6833 20.403H12.5772C13.1677 19.7388 13.4968 18.8715 13.5 17.9706C13.5 15.9735 11.9285 14.3384 10 14.3384C8.07151 14.3384 6.50001 15.9735 6.50001 17.9706C6.50001 18.9565 6.88618 19.8475 7.50451 20.504C6.23717 20.7469 5.09251 21.4398 4.26955 22.4624C3.44659 23.4849 2.99737 24.7723 3.00001 26.1008V29.3952C3.00001 29.5547 3.06147 29.7076 3.17087 29.8203C3.28026 29.9331 3.42863 29.9964 3.58334 29.9964H11.1807V30.5735C11.1807 30.733 11.2421 30.8859 11.3515 30.9986C11.4609 31.1113 11.6093 31.1747 11.764 31.1747H29.236C29.3907 31.1747 29.5391 31.1113 29.6485 30.9986C29.7579 30.8859 29.8193 30.733 29.8193 30.5735V29.9964H37.4167C37.5714 29.9964 37.7197 29.9331 37.8291 29.8203C37.9385 29.7076 38 29.5547 38 29.3952V26.1008C38.0026 24.7723 37.5534 23.4849 36.7305 22.4624C35.9075 21.4398 34.7628 20.7469 33.4955 20.504C33.9772 19.9942 34.303 19.3498 34.4324 18.6508C34.5618 17.9519 34.489 17.2291 34.2231 16.5724C33.9573 15.9157 33.5101 15.354 32.937 14.957C32.364 14.56 31.6904 14.3453 31 14.3396C29.0715 14.3396 27.5 15.9748 27.5 17.9718C27.5 18.9097 27.8558 19.7573 28.4228 20.4042H28.3155C27.8955 20.4042 27.4988 20.4727 27.1138 20.5689C26.0943 19.7793 24.8754 19.3096 23.6033 19.2162C24.7023 18.2784 25.4175 16.8741 25.4175 15.2906C25.4175 12.4748 23.2008 10.1759 20.4825 10.1759L20.4813 10.1747ZM20.4813 11.377C22.5673 11.377 24.2497 13.1204 24.2497 15.2894C24.2542 16.3065 23.8715 17.2848 23.1836 18.0141C22.4958 18.7434 21.5578 19.1656 20.5712 19.1898H20.3927C19.4061 19.1659 18.468 18.7438 17.7803 18.0144C17.0926 17.2849 16.7102 16.3064 16.7153 15.2894C16.7123 14.7774 16.8074 14.2698 16.9951 13.7957C17.1829 13.3216 17.4597 12.8905 17.8097 12.5269C18.1596 12.1634 18.5757 11.8747 19.0342 11.6774C19.4927 11.48 19.9845 11.378 20.4813 11.377ZM10 15.5407C11.2927 15.5407 12.3333 16.618 12.3333 17.9706C12.3361 18.2885 12.2778 18.6038 12.1619 18.8984C12.0459 19.193 11.8746 19.461 11.6577 19.6871C11.4409 19.9132 11.1828 20.0928 10.8982 20.2157C10.6137 20.3385 10.3085 20.4022 10 20.403C8.70734 20.403 7.66668 19.3233 7.66668 17.9706C7.66668 16.618 8.70734 15.5407 10 15.5407ZM31 15.5407C32.2927 15.5407 33.3333 16.618 33.3333 17.9706C33.3361 18.2885 33.2778 18.6038 33.1619 18.8984C33.0459 19.193 32.8746 19.461 32.6577 19.6871C32.4409 19.9132 32.1827 20.0928 31.8982 20.2157C31.6137 20.3385 31.3085 20.4022 31 20.403C29.7073 20.403 28.6667 19.3233 28.6667 17.9706C28.6667 16.618 29.7073 15.5407 31 15.5407ZM17.8797 20.3921H19.331L18.7523 27.54C18.7452 27.627 18.7565 27.7146 18.7855 27.7966C18.8146 27.8786 18.8606 27.9531 18.9203 28.0149L20.087 29.2173C20.1412 29.2733 20.2056 29.3177 20.2764 29.348C20.3473 29.3783 20.4233 29.3939 20.5 29.3939C20.5767 29.3939 20.6527 29.3783 20.7236 29.348C20.7944 29.3177 20.8588 29.2733 20.913 29.2173L22.0797 28.0149C22.1394 27.9531 22.1854 27.8786 22.2145 27.7966C22.2435 27.7146 22.2548 27.627 22.2477 27.54L21.669 20.3921H23.1203C24.3538 20.3949 25.5501 20.8271 26.5153 21.6185H26.5177C26.5378 21.643 26.56 21.6656 26.5842 21.6858C27.1488 22.1608 27.6167 22.7463 27.969 23.4064C28.018 23.5002 28.0717 23.5903 28.1148 23.6865C28.2927 24.0721 28.4281 24.477 28.5185 24.8937C28.5325 24.9586 28.5418 25.0259 28.5535 25.0909C28.6118 25.4275 28.6527 25.775 28.6527 26.1309V29.9699H26.324V26.4904C26.324 26.3309 26.2625 26.178 26.1531 26.0653C26.0437 25.9526 25.8954 25.8892 25.7407 25.8892C25.586 25.8892 25.4376 25.9526 25.3282 26.0653C25.2188 26.178 25.1573 26.3309 25.1573 26.4904V29.9699H15.8427V26.4904C15.8425 26.4114 15.8273 26.3333 15.7978 26.2604C15.7684 26.1875 15.7253 26.1214 15.671 26.0656C15.6167 26.0099 15.5523 25.9658 15.4815 25.9357C15.4107 25.9057 15.3348 25.8903 15.2582 25.8904C15.1816 25.8906 15.1057 25.9063 15.035 25.9366C14.9643 25.967 14.9001 26.0114 14.846 26.0673C14.792 26.1233 14.7491 26.1896 14.72 26.2626C14.6908 26.3356 14.6758 26.4138 14.676 26.4928V29.9723H12.3473V26.1345C12.3473 25.7786 12.3882 25.4323 12.4477 25.0945C12.4593 25.0283 12.4675 24.9622 12.4815 24.8973C12.5719 24.4806 12.7073 24.0757 12.8852 23.6901C12.9283 23.594 12.982 23.5038 13.031 23.41C13.3809 22.75 13.8511 22.1658 14.4158 21.6895C14.4406 21.6678 14.4636 21.644 14.4847 21.6185C15.4499 20.8271 16.6462 20.3949 17.8797 20.3921ZM20.5 20.3993L20.5023 20.4246L21.0623 27.3597L20.5 27.9392L19.9377 27.3597L20.4977 20.4246L20.5 20.3993ZM8.48451 21.6053H12.6845C12.7207 21.6053 12.7557 21.6173 12.7918 21.6221C11.7503 22.8799 11.1789 24.4797 11.1807 26.1333V28.7941H7.66668V25.7954C7.66668 25.636 7.60522 25.4831 7.49582 25.3703C7.38643 25.2576 7.23805 25.1943 7.08334 25.1943C6.92863 25.1943 6.78026 25.2576 6.67086 25.3703C6.56147 25.4831 6.50001 25.636 6.50001 25.7954V28.7941H4.16668V26.1008C4.16668 23.5976 6.08584 21.6053 8.48451 21.6053ZM28.3155 21.6053H32.5155C34.9142 21.6053 36.8333 23.5976 36.8333 26.1008V28.7941H34.5V26.096C34.5 25.9366 34.4385 25.7837 34.3291 25.6709C34.2197 25.5582 34.0714 25.4948 33.9167 25.4948C33.7619 25.4948 33.6136 25.5582 33.5042 25.6709C33.3948 25.7837 33.3333 25.9366 33.3333 26.096V28.7941H29.8193V26.1333C29.8214 24.4799 29.2505 22.8801 28.2093 21.6221C28.2443 21.6101 28.2793 21.6053 28.3155 21.6053Z" fill="#7B4AE2"/>
<circle cx="29.4167" cy="26.6979" r="10.4167" fill="#7B4AE2" fill-opacity="0.2"/>
</svg>
