<svg width="64" height="65" viewBox="0 0 64 65" fill="none" xmlns="http://www.w3.org/2000/svg">
<path d="M29.608 28.6889C28.7923 29.1599 28.1345 29.8621 27.7179 30.7069C27.3013 31.5518 27.1445 32.5011 27.2675 33.435C27.3904 34.3689 27.7876 35.2453 28.4086 35.9535C29.0297 36.6617 29.8469 37.1698 30.7567 37.4136C31.6666 37.6573 32.6283 37.6258 33.5202 37.323C34.4121 37.0202 35.1943 36.4597 35.7677 35.7124C36.341 34.9651 36.6799 34.0645 36.7415 33.1246C36.8031 32.1847 36.5845 31.2476 36.1135 30.4319C35.4819 29.3381 34.4417 28.54 33.2217 28.2132C32.0017 27.8863 30.7018 28.0574 29.608 28.6889ZM50.9539 33.856C50.6412 33.4987 50.3113 33.1404 49.9641 32.7812C50.2066 32.5263 50.4413 32.2716 50.6681 32.0172C54.9503 27.2058 56.7576 22.3806 55.083 19.4797C53.4772 16.6984 48.7005 15.8696 42.7205 17.0323C42.1315 17.1475 41.5457 17.2775 40.9632 17.4223C40.8517 17.0379 40.7331 16.6556 40.6074 16.2756C38.5787 10.1622 35.3016 6.18564 31.9522 6.18774C28.7404 6.18921 25.6362 9.91332 23.656 15.6744C23.4612 16.2427 23.2809 16.8158 23.1153 17.3936C22.7258 17.2981 22.3347 17.2098 21.942 17.1288C15.6326 15.8334 10.5509 16.6866 8.87947 19.5891C7.2768 22.3725 8.95288 26.922 12.9555 31.5147C13.3525 31.9692 13.7607 32.4134 14.1801 32.8474C13.6856 33.3568 13.2174 33.8658 12.781 34.372C8.87541 38.9 7.29517 43.3751 8.89525 46.1464C10.5478 49.009 15.558 49.9447 21.6563 48.7447C22.1505 48.6467 22.642 48.5365 23.1308 48.414C23.3098 49.039 23.5062 49.6586 23.72 50.2727C25.6915 55.9182 28.7782 59.5224 31.9786 59.5212C35.2838 59.5193 38.5971 55.6469 40.6046 49.7646C40.7631 49.2997 40.9132 48.817 41.0555 48.3199C41.6868 48.477 42.3222 48.6163 42.9617 48.738C48.8374 49.8497 53.5018 48.9754 55.0989 46.202C56.7482 43.3373 55.0478 38.5326 50.9539 33.856ZM10.8538 20.726C11.8828 18.9393 16.0358 18.2423 21.4834 19.3607C21.8315 19.4322 22.1857 19.5122 22.5457 19.6007C22.0139 21.9534 21.6386 24.3387 21.4224 26.7411C19.4568 28.1239 17.5827 29.6325 15.812 31.2574C15.4219 30.8539 15.0422 30.4407 14.6729 30.0176C11.2433 26.0824 9.888 22.4032 10.8538 20.726ZM21.2183 36.0009C19.8568 34.97 18.5915 33.9138 17.443 32.8516C18.5907 31.7959 19.8568 30.7433 21.2155 29.7152C21.1667 30.7625 21.1425 31.8107 21.1429 32.8597C21.1436 33.9071 21.1688 34.9542 21.2183 36.0009ZM21.2166 46.5092C18.9053 47.0231 16.5192 47.1073 14.1774 46.7576C13.5355 46.7076 12.9106 46.5265 12.3414 46.2254C11.7722 45.9244 11.2707 45.5099 10.8681 45.0074C9.89723 43.3256 11.1661 39.7327 14.5063 35.8601C14.9262 35.3748 15.3599 34.9021 15.8074 34.4421C17.5784 36.0755 19.4555 37.59 21.4263 38.9757C21.6455 41.4087 22.0252 43.8247 22.5629 46.2077C22.1167 46.3192 21.668 46.4197 21.2166 46.5092ZM40.153 25.0709C39.2586 24.5073 38.3532 23.9619 37.4367 23.4345C36.5348 22.9154 35.6221 22.4158 34.6986 21.9356C36.2799 21.2708 37.8343 20.7029 39.335 20.2401C39.6887 21.8356 39.9617 23.4479 40.153 25.0709ZM25.8107 16.415C27.5073 11.4786 30.0177 8.46689 31.9534 8.46607C34.0149 8.46508 36.6935 11.7148 38.4449 16.9931C38.5587 17.3372 38.6663 17.6832 38.7676 18.0312C36.4666 18.7448 34.2153 19.61 32.0285 20.621C29.8508 19.5981 27.6066 18.7233 25.3112 18.0025C25.4646 17.4693 25.6311 16.9401 25.8107 16.415ZM24.743 20.2117C26.3083 20.7045 27.8477 21.2759 29.3555 21.9237C27.4873 22.8878 25.6674 23.938 23.8958 25.0741C24.1099 23.3728 24.3947 21.7428 24.743 20.2117ZM23.8997 40.6402C24.7832 41.2058 25.6796 41.7504 26.5889 42.2742C27.5164 42.8082 28.4563 43.3198 29.4085 43.809C27.8893 44.4792 26.3366 45.0711 24.7567 45.5821C24.4043 44.0299 24.1164 42.3712 23.8997 40.6402ZM38.4482 49.0283C37.7388 51.2873 36.6196 53.3964 35.1467 55.2503C34.7827 55.7813 34.3135 56.2322 33.7684 56.5748C33.2233 56.9174 32.6138 57.1447 31.9774 57.2424C30.0355 57.2435 27.557 54.3491 25.871 49.5212C25.6724 48.9504 25.4897 48.3744 25.3229 47.7932C27.6294 47.0491 29.8827 46.1496 32.0674 45.1007C34.2722 46.1182 36.5414 46.9899 38.8604 47.71C38.7337 48.1527 38.5964 48.5921 38.4482 49.0283ZM39.4142 45.497C37.8963 45.0277 36.3193 44.4503 34.7152 43.7756C35.6195 43.2997 36.5303 42.7971 37.4478 42.2678C38.3892 41.7242 39.3066 41.167 40.2 40.5961C40.0221 42.2421 39.7598 43.8779 39.4142 45.497ZM40.6043 32.8499C40.6063 34.4693 40.5557 36.0875 40.4526 37.7044C39.1388 38.5935 37.7518 39.4617 36.3086 40.2948C34.8715 41.1246 33.4475 41.8871 32.0507 42.5772C30.5808 41.8728 29.1392 41.1137 27.726 40.2999C26.3207 39.491 24.9476 38.6297 23.6068 37.7159C23.4843 36.0995 23.4225 34.4802 23.4216 32.858C23.4205 31.2369 23.4812 29.618 23.6031 28.0003C24.9166 27.1033 26.2935 26.2358 27.7172 25.4138C29.1474 24.588 30.5892 23.8287 32.023 23.1405C33.4748 23.8461 34.9004 24.6022 36.2999 25.4089C37.7042 26.2161 39.0811 27.0682 40.4305 27.9654C40.5464 29.5911 40.6042 31.2192 40.6043 32.8499ZM43.1556 19.269C48.2791 18.2724 52.1423 18.9428 53.11 20.6189C54.141 22.4045 52.6634 26.3482 48.9665 30.5025C48.7622 30.7317 48.5501 30.962 48.3306 31.1931C46.5292 29.5648 44.619 28.061 42.6133 26.6921C42.4109 24.3161 42.0497 21.9562 41.5321 19.6283C42.0838 19.4926 42.6249 19.3728 43.1556 19.269ZM42.8093 29.6282C44.1621 30.6159 45.4629 31.6732 46.7062 32.7957C45.4684 33.9367 44.1717 35.0123 42.8216 36.0179C42.863 34.9621 42.8833 33.9057 42.8826 32.8488C42.8822 31.775 42.8577 30.7015 42.8093 29.6282ZM53.1242 45.0649C52.155 46.748 48.4098 47.4498 43.3849 46.4991C42.8091 46.3904 42.2182 46.261 41.6123 46.1109C42.1174 43.7531 42.4626 41.3639 42.6455 38.9596C44.6478 37.5668 46.552 36.038 48.3444 34.3839C48.6581 34.7097 48.9564 35.0341 49.2394 35.3569C50.8423 37.0997 52.1106 39.1224 52.981 41.3245C53.2593 41.905 53.4156 42.5365 53.4402 43.1798C53.4649 43.8232 53.3573 44.4647 53.1242 45.0649Z" fill="#7B4AE2" fill-opacity="0.5"/>
</svg>
