<svg width="56" height="65" viewBox="0 0 56 65" fill="none" xmlns="http://www.w3.org/2000/svg">
<path fill-rule="evenodd" clip-rule="evenodd" d="M17.209 39.717C16.1918 40.3531 14.6593 41.3836 13.4736 42.5045C11.5272 44.3427 11.1199 46.8924 12.1467 47.4881C13.0965 48.0387 15.314 47.3835 16.901 45.6526C18.5666 43.8352 19.2535 41.5313 18.5441 38.9159C18.4607 38.9656 18.3789 39.0155 18.2986 39.0618L18.3004 39.0653L18.1927 39.1264C17.7787 39.3736 17.4402 39.5774 17.209 39.717ZM45.7934 38.8919C45.2172 40.144 45.1883 40.5469 45.3633 40.6723C46.1994 40.3719 47.5825 39.6481 47.5934 37.7084C47.5952 37.4179 47.5311 37.1062 47.4283 36.7805C46.5345 37.5719 46.0193 38.4005 45.7934 38.8919ZM54.7643 35.1059C52.5309 34.8456 50.7881 35.1589 49.4355 35.7224C49.686 36.3743 49.8785 37.0533 49.9056 37.7373C49.9684 39.2386 48.935 40.3496 47.8581 41.1428C47.2292 41.6052 46.5601 41.9135 45.9983 42.0996C45.5492 42.2891 44.9523 42.4848 44.5285 42.3984C43.5945 42.2085 43.0973 41.3788 43.7327 39.5485C44.0759 38.558 45.066 37.0502 46.6642 35.7515C46.3 35.0016 45.894 34.2375 45.687 33.5355C45.2793 32.1517 45.1561 31.3152 45.1561 31.3152C45.1561 31.3152 43.8388 34.0463 42.1393 36.53C42.0413 36.6744 41.9436 36.8159 41.8456 36.957C42.1794 37.7327 42.4423 38.553 42.478 39.3801C42.5405 40.8812 41.8906 42.0163 40.8122 42.8077C40.2283 43.2382 39.6056 43.5355 39.0712 43.7247C38.7295 43.8739 38.0345 44.1193 37.0462 44.1854C36.5056 44.2224 35.9857 44.1889 35.6954 43.9688C35.2957 43.667 35.2476 43.2944 35.4546 42.7854C35.6296 42.3534 36.9388 40.8589 38.0365 39.5503C38.3396 39.1889 38.6284 38.8197 38.8867 38.4778L38.8804 38.4631C38.8804 38.4633 39.0792 38.2065 39.4019 37.7585C39.0007 36.8947 38.4921 35.9954 38.253 35.1799C37.8453 33.7961 37.7219 32.9594 37.7219 32.9594C37.7219 32.9594 36.3867 36.3826 34.9956 39.1152C33.9191 41.2316 33.2001 42.5141 32.8761 43.0761L32.8729 43.0986C32.8729 43.0986 32.8245 43.1807 32.7412 43.3091L32.6788 43.4132L32.6771 43.4036C32.3159 43.9369 31.5057 44.9819 30.7002 44.9819C28.4891 44.9819 29.3009 40.4911 29.3009 40.4911C29.3009 40.4911 28.6545 42.1545 27.9258 43.5819C27.3324 44.7458 26.7916 45.732 25.609 45.732C25.2689 45.732 24.7297 45.7221 24.2819 45.2964C23.2662 44.3315 22.4897 41.8813 22.6419 39.9836C22.7718 38.3701 23.0206 37.2525 23.3607 36.32C22.7541 36.6505 22.053 37.0425 21.339 37.4617L20.2413 38.1085L20.2768 38.1728C21.1848 39.9294 21.4272 43.7779 19.4471 46.7321C17.4672 49.6878 13.7814 51.4862 10.1904 50.4876C9.0317 50.1647 7.28126 47.7677 8.79108 44.4265C10.1228 41.4801 15.4452 38.6945 16.8479 37.9994L17.2329 37.7874C14.4364 35.3404 7.45298 32.0395 6.47429 26.9691C6.19823 25.5417 6.86739 22.1284 11.0584 18.2044C14.5836 14.905 19.4873 12.3778 24.0172 10.7673C31.6275 8.06206 39.6683 9.65785 40.9054 14.5099C42.1216 19.2818 37.982 24.9896 32.6804 27.0415C27.9468 28.8733 24.0332 28.5828 22.4253 28.0547C20.5977 27.4543 19.5258 26.2483 19.2644 25.5676C19.1616 25.3011 18.9848 24.8533 19.2644 24.6991C19.4359 24.6044 19.5048 24.6269 19.9637 25.1342C20.4004 25.6159 22.1556 26.9085 25.49 26.5342C34.2401 25.5533 39.5108 18.7504 37.8453 15.0896C36.6789 12.5272 29.9348 11.3711 21.509 15.5729C11.2236 20.701 10.6653 24.9286 10.5772 26.5342C10.3363 30.951 16.0245 33.2743 19.1023 36.5591L19.2209 36.6893C19.7968 36.3714 20.4052 36.0359 21.0019 35.7084C22.5538 34.8557 24.0172 34.0559 24.699 33.6834C25.7823 32.1088 27.9803 30.3713 29.5673 30.3713C32.1042 30.3713 31.2329 34.0177 31.2329 34.0177C31.2329 34.0177 31.2843 33.8508 31.3532 33.8492C31.4254 33.8473 31.7047 33.3689 32.4879 33.6545C33.2933 33.9501 33.1102 34.5153 33.1152 34.5731C33.1249 34.6853 32.1637 37.9269 31.7642 40.0062C31.573 40.9984 31.6837 41.7212 31.7402 41.7212C31.8187 41.7212 31.9793 41.469 32.1285 41.1977L32.1252 41.1896C32.1252 41.1896 32.2374 40.9842 32.4253 40.615L32.4623 40.5377L32.4638 40.5412C32.6854 40.1077 32.9965 39.4702 33.3559 38.6803C34.0602 37.1279 36.7478 31.1341 36.9757 30.4711C37.2035 29.808 37.3222 29.1225 37.4347 28.8285C37.5454 28.5347 38.4954 28.3131 39.6056 28.3212C40.7159 28.3293 40.8286 28.8029 40.8363 28.9009C40.8443 28.9987 40.3084 30.3138 40.1848 31.2433C40.063 32.1729 40.1802 32.6367 40.2813 33.4172C40.3471 33.9275 40.6663 34.5748 41.0436 35.3085C42.1925 33.4299 44.214 29.8367 44.4082 28.83C44.5412 28.1414 44.7547 27.4814 44.8672 27.1874C44.9794 26.8936 45.9279 26.6722 47.038 26.6801C48.1484 26.6882 48.2606 27.1618 48.2687 27.2598C48.2768 27.3578 47.7391 28.6727 47.6173 29.6024C47.4952 30.5303 47.6127 30.9961 47.7135 31.7763C47.8004 32.4442 48.3169 33.3417 48.8289 34.3626C50.2263 33.6738 51.8711 33.2116 53.7968 33.2019C54.5941 33.1973 55.5201 33.2774 55.9983 33.4266V18.0662C55.9983 16.9825 55.4429 15.9839 54.5044 15.4429L29.4472 0.960335C28.5103 0.419146 27.363 0.419146 26.4259 0.960335L1.43778 15.4359C0.500658 15.9771 -6.10352e-05 16.9775 -6.10352e-05 18.0594V47.037C-6.10352e-05 48.119 0.503721 49.1193 1.43932 49.6603L26.4676 64.1472C27.4045 64.6902 28.5407 64.6902 29.4776 64.1472L54.5173 49.6603C55.4542 49.1176 56 48.1187 56 47.037V35.326C55.6822 35.2324 55.2169 35.1587 54.7643 35.1059ZM27.8073 33.5885C27.2698 34.1905 26.3537 35.743 25.9251 37.0423C25.0731 39.6223 25.4421 42.2442 26.0454 42.4017C26.7498 42.5861 27.9053 39.1375 28.4585 37.7887C28.8052 36.9441 30.1531 33.1954 29.8578 32.6945C29.6273 32.3027 28.6722 32.619 27.8073 33.5885ZM37.5554 42.2842C37.5554 42.2842 37.3855 42.445 37.459 42.4899C37.5585 42.5494 37.7735 42.4722 38.0078 42.3501C38.6706 41.9329 40.1579 40.8923 40.1612 39.3526C40.1612 39.3077 40.1594 39.2644 40.1564 39.2178C39.8114 39.6706 39.4936 40.0736 39.2192 40.4155C38.7507 40.9982 37.5554 42.2842 37.5554 42.2842Z" fill="#7B4AE2" fill-opacity="0.5"/>
</svg>
