<svg width="64" height="65" viewBox="0 0 64 65" fill="none" xmlns="http://www.w3.org/2000/svg">
<g opacity="0.64">
<path d="M49.3333 26.2145C47.3335 25.5257 45.5682 24.2872 44.24 22.6411C42.7761 20.8071 40.9121 19.3322 38.7906 18.3292C36.6692 17.3262 34.3464 16.8218 32 16.8545C28.8436 16.6309 25.7189 17.6045 23.248 19.5811C20.7771 21.5578 19.1414 24.3927 18.6666 27.5211C19.6018 25.9564 21.0092 24.7288 22.6864 24.0148C24.3635 23.3008 26.224 23.1373 28 23.5478C29.9965 24.2566 31.7589 25.5023 33.0933 27.1478C34.5652 28.9672 36.4327 30.4269 38.5538 31.4158C40.6748 32.4047 42.9935 32.8967 45.3333 32.8545C48.4897 33.078 51.6144 32.1045 54.0853 30.1278C56.5562 28.1511 58.1919 25.3162 58.6666 22.1878C57.7485 23.7712 56.3456 25.0174 54.665 25.7425C52.9844 26.4675 51.1152 26.633 49.3333 26.2145ZM14.6666 39.4945C16.6665 40.1832 18.4318 41.4217 19.76 43.0678C21.2238 44.9018 23.0878 46.3768 25.2093 47.3797C27.3308 48.3827 29.6536 48.8871 32 48.8545C35.1563 49.078 38.2811 48.1045 40.752 46.1278C43.2228 44.1511 44.8585 41.3162 45.3333 38.1878C44.3982 39.7525 42.9908 40.9802 41.3136 41.6941C39.6364 42.4081 37.776 42.5716 36 42.1611C34.0035 41.4523 32.2411 40.2066 30.9066 38.5611C29.4308 36.7462 27.5625 35.2898 25.4424 34.3013C23.3223 33.3128 21.0056 32.8181 18.6666 32.8545C15.5103 32.6309 12.3855 33.6044 9.91466 35.5811C7.44379 37.5578 5.80809 40.3927 5.33331 43.5211C6.25146 41.9377 7.6544 40.6915 9.335 39.9665C11.0156 39.2414 12.8848 39.0759 14.6666 39.4945Z" fill="#7B4AE2" fill-opacity="0.5"/>
</g>
</svg>
