<svg width="637" height="651" viewBox="0 0 637 651" fill="none" xmlns="http://www.w3.org/2000/svg">
<path d="M547.597 309.641C547.597 167.098 436.304 51.5443 299.017 51.5443C161.73 51.5443 50.4375 167.098 50.4375 309.641C50.4375 452.184 161.73 567.738 299.017 567.738C436.304 567.738 547.597 452.184 547.597 309.641Z" fill="#7B4AE2" fill-opacity="0.2"/>
<g filter="url(#filter0_d_419_1411)">
<ellipse cx="551.913" cy="331.074" rx="34.525" ry="35.87" fill="#090E16"/>
</g>
<g clip-path="url(#clip0_419_1411)">
<path fill-rule="evenodd" clip-rule="evenodd" d="M566.478 313.139H537.347C535.858 313.139 534.65 314.394 534.65 315.941V346.207C534.65 347.754 535.858 349.009 537.347 349.009H566.478C567.967 349.009 569.175 347.754 569.175 346.207V315.941C569.175 314.394 567.967 313.139 566.478 313.139ZM554.949 345.099V341.229C555.625 341.818 556.359 342.259 557.151 342.553C557.943 342.848 558.743 342.995 559.551 342.995C560.025 342.995 560.438 342.95 560.792 342.862C561.145 342.773 561.44 342.65 561.677 342.493C561.914 342.336 562.091 342.15 562.207 341.937C562.324 341.723 562.382 341.491 562.382 341.241C562.382 340.903 562.289 340.6 562.102 340.334C561.916 340.068 561.662 339.822 561.339 339.596C561.017 339.371 560.635 339.153 560.192 338.943C559.749 338.734 559.271 338.52 558.759 338.302C557.454 337.738 556.481 337.049 555.841 336.234C555.2 335.42 554.88 334.436 554.88 333.284C554.88 332.381 555.054 331.605 555.404 330.956C555.753 330.307 556.229 329.772 556.831 329.353C557.433 328.934 558.13 328.625 558.922 328.428C559.714 328.23 560.553 328.132 561.438 328.132C562.308 328.132 563.079 328.186 563.751 328.295C564.423 328.404 565.042 328.571 565.609 328.797V332.413C565.329 332.211 565.024 332.034 564.694 331.881C564.364 331.727 564.025 331.601 563.675 331.5C563.326 331.399 562.978 331.324 562.632 331.276C562.287 331.228 561.959 331.203 561.648 331.203C561.221 331.203 560.833 331.246 560.483 331.33C560.134 331.415 559.838 331.534 559.598 331.687C559.357 331.84 559.17 332.024 559.038 332.237C558.906 332.451 558.84 332.691 558.84 332.957C558.84 333.247 558.914 333.507 559.062 333.737C559.209 333.967 559.419 334.185 559.691 334.39C559.963 334.596 560.293 334.797 560.681 334.995C561.069 335.192 561.508 335.396 561.997 335.606C562.665 335.896 563.265 336.204 563.797 336.531C564.329 336.857 564.786 337.226 565.166 337.637C565.547 338.048 565.838 338.518 566.04 339.046C566.242 339.574 566.343 340.189 566.343 340.891C566.343 341.858 566.166 342.67 565.813 343.327C565.459 343.984 564.98 344.517 564.374 344.924C563.768 345.331 563.063 345.623 562.26 345.801C561.456 345.978 560.607 346.067 559.714 346.067C558.798 346.067 557.926 345.986 557.099 345.825C556.272 345.664 555.555 345.422 554.949 345.099ZM553.531 331.598H548.741V345.786H544.946V331.598H540.179V328.412H553.531V331.598Z" fill="#7B4AE2" fill-opacity="0.5"/>
</g>
<g filter="url(#filter1_d_419_1411)">
<ellipse cx="84.9625" cy="239.606" rx="34.525" ry="35.87" fill="#090E16"/>
</g>
<path d="M97.8788 233.297C97.4762 233.153 97.0591 233.017 96.6296 232.888C96.7002 232.588 96.765 232.293 96.8226 232.003C97.7682 227.234 97.1499 223.392 95.0388 222.127C93.0144 220.914 89.7038 222.179 86.3602 225.202C86.0386 225.493 85.7162 225.8 85.3939 226.123C85.1792 225.91 84.9648 225.703 84.7509 225.506C81.2467 222.274 77.7343 220.911 75.6252 222.18C73.6028 223.396 73.0039 227.008 73.8551 231.527C73.9372 231.964 74.0333 232.41 74.142 232.863C73.6449 233.009 73.165 233.166 72.7058 233.332C68.5975 234.82 65.9737 237.152 65.9737 239.572C65.9737 242.07 68.7903 244.576 73.0694 246.096C73.4071 246.216 73.7575 246.329 74.1186 246.437C74.0014 246.927 73.8995 247.407 73.8139 247.876C73.0023 252.317 73.6361 255.843 75.6531 257.052C77.7365 258.3 81.2331 257.017 84.6378 253.925C84.9069 253.681 85.177 253.421 85.4475 253.15C85.7982 253.501 86.1483 253.833 86.4966 254.144C89.7945 257.093 93.0517 258.283 95.0668 257.071C97.1481 255.819 97.8246 252.031 96.9464 247.422C96.8793 247.07 96.8013 246.711 96.7136 246.345C96.9592 246.269 97.2002 246.191 97.4353 246.11C101.884 244.579 104.778 242.104 104.778 239.572C104.778 237.144 102.07 234.796 97.8788 233.297ZM96.9139 244.476C96.7017 244.549 96.484 244.619 96.2622 244.688C95.7711 243.072 95.1083 241.355 94.2972 239.58C95.0712 237.848 95.7084 236.152 96.1857 234.547C96.5827 234.667 96.9679 234.792 97.3392 234.925C100.93 236.21 103.12 238.108 103.12 239.572C103.12 241.13 100.755 243.153 96.9139 244.476ZM95.3202 247.757C95.7085 249.795 95.764 251.637 95.5067 253.078C95.2756 254.372 94.8108 255.235 94.2362 255.581C93.0133 256.316 90.3981 255.36 87.5777 252.838C87.2544 252.549 86.9287 252.241 86.602 251.914C87.6954 250.672 88.7882 249.227 89.8547 247.623C91.7306 247.45 93.5029 247.168 95.1101 246.782C95.1893 247.113 95.2596 247.439 95.3202 247.757ZM79.203 255.453C78.0082 255.892 77.0566 255.904 76.4814 255.56C75.2574 254.826 74.7486 251.995 75.4427 248.197C75.5222 247.762 75.6168 247.315 75.7259 246.859C77.3155 247.224 79.0748 247.487 80.9552 247.645C82.0289 249.215 83.1532 250.657 84.2863 251.921C84.0387 252.169 83.7922 252.405 83.5469 252.628C82.0414 253.996 80.5327 254.966 79.203 255.453ZM73.6056 244.466C71.7134 243.794 70.1508 242.921 69.0797 241.968C68.1173 241.112 67.6314 240.261 67.6314 239.572C67.6314 238.104 69.738 236.231 73.2514 234.958C73.6777 234.804 74.124 234.658 74.5871 234.522C75.0727 236.163 75.7097 237.879 76.4784 239.614C75.6997 241.374 75.0537 243.117 74.5634 244.778C74.2332 244.679 73.9133 244.575 73.6056 244.466ZM75.4819 231.197C74.7526 227.324 75.237 224.403 76.4557 223.67C77.7539 222.89 80.6246 224.003 83.6502 226.794C83.8436 226.972 84.0378 227.159 84.2325 227.352C83.105 228.61 81.991 230.042 80.9268 231.602C79.1018 231.778 77.3548 232.061 75.7486 232.439C75.6477 232.017 75.5582 231.602 75.4819 231.197ZM92.2204 235.491C91.8364 234.802 91.4422 234.129 91.0404 233.474C92.2785 233.637 93.4647 233.853 94.5787 234.117C94.2442 235.231 93.8274 236.395 93.3367 237.589C92.9847 236.894 92.6124 236.194 92.2204 235.491ZM85.3945 228.583C86.1591 229.444 86.9248 230.405 87.678 231.447C86.919 231.41 86.1507 231.391 85.376 231.391C84.6086 231.391 83.8459 231.41 83.0916 231.446C83.8455 230.413 84.6179 229.454 85.3945 228.583ZM78.5248 235.503C78.1413 236.194 77.7759 236.89 77.4294 237.587C76.9467 236.398 76.5337 235.228 76.1964 234.099C77.3035 233.841 78.4841 233.631 79.7144 233.471C79.3069 234.132 78.9094 234.81 78.5248 235.502V235.503ZM79.7498 245.795C78.4788 245.647 77.2804 245.448 76.1735 245.197C76.5162 244.048 76.9383 242.853 77.4313 241.638C77.7787 242.335 78.1455 243.032 78.5314 243.724H78.5315C78.9245 244.43 79.3318 245.121 79.7498 245.795ZM85.4403 250.681C84.6546 249.801 83.871 248.826 83.1056 247.779C83.8486 247.809 84.6061 247.824 85.376 247.824C86.1669 247.824 86.9488 247.806 87.7184 247.77C86.9627 248.837 86.1998 249.813 85.4403 250.681ZM93.3525 241.576C93.8712 242.804 94.3084 243.993 94.6556 245.123C93.5305 245.389 92.3157 245.604 91.0358 245.764C91.4386 245.101 91.8363 244.416 92.227 243.712C92.6223 243 92.9976 242.287 93.3525 241.576ZM90.7911 242.852C90.1845 243.945 89.5618 244.988 88.9295 245.972C87.7781 246.058 86.5884 246.102 85.376 246.102C84.1684 246.102 82.9938 246.063 81.8626 245.987C81.2049 244.989 80.5687 243.943 79.9659 242.861H79.9661C79.3649 241.783 78.8117 240.695 78.3104 239.613C78.8115 238.529 79.3634 237.44 79.961 236.363L79.9609 236.363C80.5602 235.283 81.1909 234.242 81.8425 233.251C82.9965 233.16 84.1799 233.113 85.3759 233.113H85.376C86.5773 233.113 87.7622 233.161 88.9159 233.252C89.5576 234.236 90.184 235.274 90.7856 236.354C91.3941 237.446 91.953 238.527 92.4585 239.588C91.9545 240.668 91.3968 241.76 90.7911 242.852ZM94.2107 223.619C95.5102 224.398 96.0155 227.538 95.1991 231.655C95.147 231.918 95.0884 232.185 95.0247 232.456C93.4148 232.071 91.6666 231.783 89.8362 231.605C88.77 230.027 87.6651 228.593 86.556 227.352C86.8542 227.054 87.1519 226.769 87.4484 226.501C90.3133 223.911 92.9908 222.888 94.2107 223.619ZM85.376 235.972C87.2897 235.972 88.8411 237.583 88.8411 239.572C88.8411 241.56 87.2897 243.172 85.376 243.172C83.4623 243.172 81.9109 241.56 81.9109 239.572C81.9109 237.583 83.4623 235.972 85.376 235.972Z" fill="#7B4AE2" fill-opacity="0.5"/>
<g filter="url(#filter2_d_419_1411)">
<ellipse cx="84.9625" cy="469.174" rx="34.525" ry="35.87" fill="#090E16"/>
</g>
<g clip-path="url(#clip1_419_1411)">
<path fill-rule="evenodd" clip-rule="evenodd" d="M79.2533 451.239C76.077 451.239 73.4991 453.917 73.4991 457.217C73.4991 460.517 76.077 463.195 79.2533 463.195C76.077 463.195 73.4991 465.874 73.4991 469.174C73.4991 472.474 76.077 475.152 79.2533 475.152C76.077 475.152 73.4991 477.83 73.4991 481.13C73.4991 484.43 76.077 487.109 79.2533 487.109C82.4296 487.109 85.0074 484.43 85.0074 481.13L85.0074 469.174C85.0074 472.474 87.5853 475.152 90.7616 475.152C93.9379 475.152 96.5157 472.474 96.5157 469.174C96.5157 465.874 93.9379 463.195 90.7616 463.195C93.9379 463.195 96.5157 460.517 96.5157 457.217C96.5157 453.917 93.9379 451.239 90.7616 451.239H79.2533ZM90.7616 463.195H85.0074L85.0074 469.174C85.0074 465.874 87.5853 463.195 90.7616 463.195Z" fill="#7B4AE2" fill-opacity="0.5"/>
</g>
<g filter="url(#filter3_f_419_1411)">
<ellipse cx="299.32" cy="306.07" rx="245.99" ry="255.574" fill="#7B4AE2" fill-opacity="0.2"/>
</g>
<g filter="url(#filter4_i_419_1411)">
<path fill-rule="evenodd" clip-rule="evenodd" d="M249.657 404.551C285.093 424.175 324.83 421.995 355.965 404.55V447.541L356.317 447.531V472.772H249.657V404.551Z" fill="#BB7D52"/>
<path fill-rule="evenodd" clip-rule="evenodd" d="M249.656 447.383C285.092 467.009 324.83 464.828 355.965 447.383V474.799L379.907 474.179L380.204 474.19C380.204 540.271 228.148 550.163 228.148 474.091L228.741 474.063L249.656 474.174V447.383V447.383Z" fill="#E8A475"/>
<path fill-rule="evenodd" clip-rule="evenodd" d="M187.463 174.461C272.029 118.518 380.217 138.412 416.769 175.301C427.337 201.722 428.084 227.206 424.975 254.561C432.114 249.238 440.604 250.457 447.293 255.413C450.002 278.112 457.262 323.015 424.733 324.963C413.534 469.811 208.339 487.84 180.602 325.437C148.362 324.281 157.055 278.901 159.07 257.108C166.804 250.995 175.637 254.071 181.12 256.806L187.463 174.461V174.461Z" fill="#E8A475"/>
<path d="M273.118 64.7492L280.113 60.0231L280.113 60.0244C283.999 57.3731 288.329 55.1831 289.884 55.1831C291.438 55.2984 295.658 56.7971 299.21 58.6411C304.873 61.5225 306.649 61.9838 311.534 61.4071C316.087 60.8311 318.197 61.1771 321.972 63.1365C325.635 65.0958 327.745 65.5571 331.631 64.8652C335.406 64.2891 337.849 64.7505 342.068 66.5945C346.065 68.4385 348.175 68.7838 350.173 67.9772C353.837 66.4792 357.39 68.5538 361.276 74.4319C365.051 80.4259 368.938 81.4633 379.263 79.2733C385.703 78.0053 386.702 78.0052 388.368 79.6186C389.922 81.3479 390.033 82.3853 388.701 88.6093C387.924 92.4127 387.591 95.8707 387.924 96.2161C388.146 96.5621 391.366 95.9854 394.807 95.0634C405.578 92.182 408.242 94.7181 406.022 106.013C405.467 109.01 405.578 109.01 410.13 108.088C412.684 107.627 417.125 107.166 420.012 107.051C424.453 107.051 425.563 107.512 427.118 109.932C428.783 112.468 428.783 113.505 427.451 118.346C425.563 125.262 425.786 127.798 429.116 134.482C433.557 143.588 435.667 163.643 433.002 171.596C431.781 175.054 431.448 175.285 427.451 174.709C425.008 174.363 414.46 169.291 403.135 162.952C370.714 144.856 362.942 142.32 333.63 140.361C299.432 137.94 269.121 141.514 242.141 150.85C220.379 158.457 198.395 170.098 195.619 175.515C193.176 180.357 191.067 194.418 190.4 211.016C189.835 223.333 189.101 227.254 191.679 227.792L194.572 227.291C198.569 226.369 209.276 224.732 211.718 224.616C214.716 224.616 219.712 223.002 226.152 219.775C235.701 215.05 236.367 214.819 247.137 214.819C259.794 214.819 268.011 217.355 275.339 223.348C277.671 225.308 280.224 226.922 281.001 226.922C281.779 226.922 287.441 228.997 293.437 231.532C307.205 237.295 312.756 237.526 323.526 232.8C327.634 230.956 333.63 228.766 336.85 227.959C339.958 227.152 344.4 224.962 346.51 223.233C353.615 217.47 362.387 214.819 374.822 214.819C385.703 214.819 386.147 214.934 395.363 219.66C400.914 222.542 406.466 224.616 408.686 224.616C410.796 224.732 415.792 225.423 419.679 226.23L426.785 227.844L426.007 220.236C424.786 207.788 421.122 193.381 417.014 184.851C413.683 177.936 413.35 176.668 414.683 175.285C416.015 173.786 416.903 173.901 421.233 176.091C424.009 177.475 427.451 179.78 429.005 181.278C433.669 185.773 436.333 199.72 436.444 219.429V230.955L426.785 227.844L419.679 226.23C415.792 225.423 410.796 224.732 408.686 224.616C406.466 224.616 400.914 222.542 395.363 219.66C386.147 214.934 385.703 214.819 374.822 214.819C362.387 214.819 353.615 217.47 346.51 223.233C344.4 224.962 339.958 227.152 336.85 227.959C333.63 228.766 327.634 230.956 323.526 232.8C312.756 237.526 307.205 237.295 293.437 231.532C287.441 228.997 281.779 226.922 281.001 226.922C280.224 226.922 277.671 225.308 275.339 223.348C268.011 217.355 259.794 214.819 247.137 214.819C236.367 214.819 235.701 215.05 226.152 219.775C219.712 223.002 214.716 224.616 211.718 224.616C209.276 224.732 198.569 226.369 194.572 227.291C190.4 227.924 193.155 228.099 191.679 227.792L187.823 237.808L184.449 236.306L180.592 231.297C179.038 227.033 178.631 184.274 179.963 169.521C181.295 154.306 181.295 154.191 178.853 151.425C175.633 147.852 176.41 144.97 181.406 142.434C186.181 140.129 186.292 139.552 183.294 135.518C178.964 129.871 181.295 124.569 189.29 122.494C193.62 121.457 195.064 118.921 192.843 116.501C188.623 111.544 192.732 107.05 201.392 107.05C206.61 107.05 206.721 106.934 208.831 102.093C210.275 98.8661 211.052 94.6014 211.052 89.0687C211.052 81.4613 211.274 80.77 213.938 79.502C216.27 78.4646 217.602 78.58 221.822 80.5393C224.597 81.8073 227.485 82.8447 228.261 82.8447C230.482 82.8447 233.147 78.926 233.924 74.6612C234.923 69.4745 237.255 65.5558 239.698 65.5558C240.808 65.5558 243.584 66.9392 245.805 68.5525C251.356 72.3566 254.576 71.6646 257.129 65.9018C261.348 56.5658 264.013 55.5284 269.564 61.1758L273.118 64.7492Z" fill="#2C1B18"/>
<path fill-rule="evenodd" clip-rule="evenodd" d="M283.999 309.701C285.22 314.657 288.773 318.577 294.99 321.689C299.987 324.224 302.541 324.801 309.869 324.801C317.196 324.801 319.751 324.224 324.747 321.689C330.965 318.577 334.517 314.658 335.739 309.701L336.294 307.166H309.869H283.443L283.999 309.701V309.701Z" fill="#AF754C"/>
<path fill-rule="evenodd" clip-rule="evenodd" d="M278.891 356.036C280.335 365.602 287.33 375.4 295.99 380.01C302.318 383.468 313.977 384.159 320.639 381.509C330.632 377.474 339.292 366.64 340.847 356.036H278.891Z" fill="#3E1B1B"/>
<path fill-rule="evenodd" clip-rule="evenodd" d="M181.608 275.104C175.043 281.978 177.574 283.779 176.41 286.532C177.476 293.878 180.461 292.762 181.73 293.036C182.585 292.383 173.306 293.114 182.451 288.135L182.109 283.424L181.608 275.104Z" fill="#3E291B"/>
<path fill-rule="evenodd" clip-rule="evenodd" d="M440.833 295.189C448.066 289.082 445.734 287.011 447.175 284.402C446.869 276.98 443.787 277.759 442.553 277.346C441.635 277.9 450.937 278.202 441.333 282.139L441.189 286.861L440.833 295.189Z" fill="#3E291B"/>
<path d="M349.042 578.377L356.172 572.36C357.824 570.965 360.253 571.225 361.596 572.94C362.94 574.655 362.689 577.176 361.037 578.571L357.587 581.483L382.638 603.396C384.291 604.79 384.541 607.311 383.197 609.026C382.436 609.999 381.324 610.504 380.204 610.504C379.349 610.504 378.489 610.21 377.774 609.606L349.042 584.588C348.142 583.828 347.619 582.688 347.619 581.483C347.619 580.278 348.142 579.138 349.042 578.377V578.377Z" fill="#7B4AE2"/>
<path d="M380.703 541.607C382.75 541.624 384.397 543.361 384.38 545.486L384.061 606.686C384.045 608.811 382.372 610.52 380.325 610.503C379.806 610.499 379.314 610.384 378.867 610.181C377.551 609.582 376.635 608.211 376.647 606.624L376.967 545.425C376.983 543.299 378.656 541.59 380.703 541.607V541.607Z" fill="#7B4AE2"/>
<path d="M396.974 583.706L399.608 581.483L390.229 573.566C388.577 572.172 388.327 569.651 389.67 567.936C391.013 566.221 393.441 565.961 395.094 567.355L408.151 578.377C409.052 579.138 409.575 580.278 409.575 581.483C409.575 582.688 409.052 583.828 408.151 584.588L401.839 589.917C401.124 590.519 400.264 590.814 399.409 590.814C398.289 590.814 397.177 590.308 396.415 589.336C395.072 587.621 395.323 585.1 396.974 583.706V583.706Z" fill="#C83267"/>
<path fill-rule="evenodd" clip-rule="evenodd" d="M233.256 467.12C200.503 470.432 170.748 483.106 145.987 504.229C124.682 522.328 118.737 536.713 103.139 557.2C134.921 591.43 177.659 620.433 224.264 636.452C255.352 647.071 276.559 650.496 309.868 650.496C343.178 650.496 364.385 647.071 395.474 636.452C442.491 620.843 482.096 595.263 517.798 558.548C493.346 525.784 483.281 504.309 443.882 484.133C427.338 475.57 407.908 469.404 393.03 467.805L386.023 467.15L385.69 467.142L384.925 472.601C381.594 498.635 350.174 517.817 310.979 517.817C271.786 517.817 240.919 498.863 236.921 472.487C236.145 467.235 235.811 466.778 233.258 467.12H233.256V467.12Z" fill="#090E16"/>
<path d="M375.353 567.32L372.952 563.151C372.395 562.185 372.825 561.116 373.912 560.765C374.998 560.413 376.33 560.912 376.887 561.878L378.049 563.895L392.871 555.806C393.821 555.265 395.213 555.535 395.979 556.409C396.414 556.905 396.554 557.488 396.421 557.999C396.319 558.389 396.058 558.737 395.647 558.971L378.708 568.266C378.19 568.56 377.512 568.625 376.861 568.442C376.21 568.258 375.657 567.846 375.353 567.32V567.32Z" fill="#F6F6F6"/>
<path d="M376.482 553.483C376.491 552.515 377.463 551.737 378.653 551.745L392.487 551.634C393.677 551.642 394.634 552.433 394.624 553.4C394.622 553.646 394.558 553.878 394.444 554.089C394.108 554.711 393.342 555.144 392.453 555.139C392.453 555.139 379.808 555.257 378.619 555.249C377.429 555.241 376.472 554.451 376.482 553.483Z" fill="#F6F6F6"/>
<path d="M387.981 539.133L372.428 550.448L374.348 556.916C374.609 558.009 374.002 559.338 372.993 559.884C371.983 560.431 370.954 559.988 370.693 558.895L368.634 550.258C368.492 549.662 368.605 548.964 368.942 548.358C369.279 547.751 369.804 547.3 370.372 547.13L387.803 534.855C388.254 534.721 388.675 534.776 389.011 534.978C389.453 535.243 389.75 535.76 389.778 536.43C389.827 537.611 389.023 538.821 387.981 539.133Z" fill="#7B4AE2"/>
</g>
<path d="M387.876 254.608C387.876 259.789 377.262 271.549 358.952 271.549C340.643 271.549 330.029 259.929 330.029 254.608C330.029 249.288 340.511 237.808 358.952 237.808C377.394 237.808 387.876 249.428 387.876 254.608Z" fill="#F6F6F6"/>
<path d="M358.952 245.928C373.414 245.928 382.967 253.068 386.416 258.668C387.345 257.128 387.876 255.728 387.876 254.608C387.876 249.428 377.394 237.808 358.952 237.808C340.511 237.808 330.029 249.428 330.029 254.608C330.029 255.728 330.56 257.128 331.489 258.668C334.938 253.208 344.491 245.928 358.952 245.928Z" fill="#E0E0E0"/>
<path d="M387.876 254.608C387.876 259.789 377.262 271.549 358.952 271.549C340.643 271.549 330.029 259.929 330.029 254.608C330.029 249.288 340.511 237.808 358.952 237.808C377.394 237.808 387.876 249.428 387.876 254.608Z" stroke="#252423" stroke-miterlimit="10" stroke-linecap="round" stroke-linejoin="round"/>
<path d="M358.952 241.728C376.333 241.728 386.416 253.208 386.549 258.528C387.478 256.988 387.876 255.728 387.876 254.608C387.876 249.428 377.394 237.808 358.952 237.808C340.511 237.808 330.029 249.428 330.029 254.608C330.029 255.728 330.427 256.988 331.356 258.528C331.489 253.348 341.572 241.728 358.952 241.728Z" fill="#3E1B1B" stroke="#252423" stroke-miterlimit="10" stroke-linecap="round" stroke-linejoin="round"/>
<path d="M358.952 267.209C365.547 267.209 370.893 261.567 370.893 254.608C370.893 247.65 365.547 242.008 358.952 242.008C352.358 242.008 347.012 247.65 347.012 254.608C347.012 261.567 352.358 267.209 358.952 267.209Z" fill="#58B858"/>
<path d="M367.178 245.648C368.638 247.608 369.566 250.128 369.566 252.788C369.566 258.949 364.79 264.129 358.82 264.129C352.849 264.129 348.073 259.089 348.073 252.788C348.073 250.128 349.002 247.608 350.461 245.648C348.471 247.888 347.012 251.108 347.012 254.608C347.012 261.609 352.319 267.209 358.952 267.209C365.586 267.209 370.893 261.609 370.893 254.608C370.893 251.108 369.434 247.888 367.178 245.648Z" fill="#5A9446"/>
<path d="M358.952 267.209C365.547 267.209 370.893 261.567 370.893 254.608C370.893 247.65 365.547 242.008 358.952 242.008C352.358 242.008 347.012 247.65 347.012 254.608C347.012 261.567 352.358 267.209 358.952 267.209Z" stroke="#252423" stroke-miterlimit="10" stroke-linecap="round" stroke-linejoin="round"/>
<path d="M358.952 260.209C361.883 260.209 364.259 257.701 364.259 254.608C364.259 251.516 361.883 249.008 358.952 249.008C356.021 249.008 353.645 251.516 353.645 254.608C353.645 257.701 356.021 260.209 358.952 260.209Z" fill="#3E1B1B" stroke="#252423" stroke-miterlimit="10" stroke-linecap="round" stroke-linejoin="round"/>
<path d="M354.441 253.068C356.713 253.068 358.554 251.125 358.554 248.728C358.554 246.331 356.713 244.388 354.441 244.388C352.17 244.388 350.328 246.331 350.328 248.728C350.328 251.125 352.17 253.068 354.441 253.068Z" fill="#F6F6F6" stroke="#252423" stroke-miterlimit="10" stroke-linecap="round" stroke-linejoin="round"/>
<path d="M278.931 254.608C278.931 259.789 268.317 271.549 250.008 271.549C231.699 271.549 221.085 259.929 221.085 254.608C221.085 249.288 231.566 237.808 250.008 237.808C268.45 237.808 278.931 249.428 278.931 254.608Z" fill="#F6F6F6"/>
<path d="M250.008 245.928C264.47 245.928 274.022 253.068 277.472 258.668C278.401 257.128 278.931 255.728 278.931 254.608C278.931 249.428 268.45 237.808 250.008 237.808C231.566 237.808 221.085 249.428 221.085 254.608C221.085 255.728 221.616 257.128 222.544 258.668C225.994 253.208 235.546 245.928 250.008 245.928Z" fill="#E0E0E0"/>
<path d="M278.931 254.608C278.931 259.789 268.317 271.549 250.008 271.549C231.699 271.549 221.085 259.929 221.085 254.608C221.085 249.288 231.566 237.808 250.008 237.808C268.45 237.808 278.931 249.428 278.931 254.608Z" stroke="#252423" stroke-miterlimit="10" stroke-linecap="round" stroke-linejoin="round"/>
<path d="M250.008 241.728C267.389 241.728 277.472 253.208 277.605 258.528C278.533 256.988 278.931 255.728 278.931 254.608C278.931 249.428 268.45 237.808 250.008 237.808C231.566 237.808 221.085 249.428 221.085 254.608C221.085 255.728 221.483 256.988 222.412 258.528C222.544 253.348 232.628 241.728 250.008 241.728Z" fill="#3E1B1B" stroke="#252423" stroke-miterlimit="10" stroke-linecap="round" stroke-linejoin="round"/>
<path d="M250.008 267.209C256.603 267.209 261.949 261.567 261.949 254.608C261.949 247.65 256.603 242.008 250.008 242.008C243.413 242.008 238.067 247.65 238.067 254.608C238.067 261.567 243.413 267.209 250.008 267.209Z" fill="#58B858"/>
<path d="M258.234 245.648C259.693 247.608 260.622 250.128 260.622 252.788C260.622 258.949 255.846 264.129 249.875 264.129C243.905 264.129 239.129 259.089 239.129 252.788C239.129 250.128 240.057 247.608 241.517 245.648C239.527 247.888 238.067 251.108 238.067 254.608C238.067 261.609 243.374 267.209 250.008 267.209C256.642 267.209 261.949 261.609 261.949 254.608C261.949 251.108 260.489 247.888 258.234 245.648Z" fill="#5A9446"/>
<path d="M250.008 267.209C256.603 267.209 261.949 261.567 261.949 254.608C261.949 247.65 256.603 242.008 250.008 242.008C243.413 242.008 238.067 247.65 238.067 254.608C238.067 261.567 243.413 267.209 250.008 267.209Z" stroke="#252423" stroke-miterlimit="10" stroke-linecap="round" stroke-linejoin="round"/>
<path d="M250.008 260.209C252.939 260.209 255.315 257.701 255.315 254.608C255.315 251.516 252.939 249.008 250.008 249.008C247.077 249.008 244.701 251.516 244.701 254.608C244.701 257.701 247.077 260.209 250.008 260.209Z" fill="#3E1B1B" stroke="#252423" stroke-miterlimit="10" stroke-linecap="round" stroke-linejoin="round"/>
<path d="M245.497 253.068C247.769 253.068 249.61 251.125 249.61 248.728C249.61 246.331 247.769 244.388 245.497 244.388C243.226 244.388 241.384 246.331 241.384 248.728C241.384 251.125 243.226 253.068 245.497 253.068Z" fill="#F6F6F6" stroke="#252423" stroke-miterlimit="10" stroke-linecap="round" stroke-linejoin="round"/>
<defs>
<filter id="filter0_d_419_1411" x="467.388" y="249.204" width="169.05" height="171.74" filterUnits="userSpaceOnUse" color-interpolation-filters="sRGB">
<feFlood flood-opacity="0" result="BackgroundImageFix"/>
<feColorMatrix in="SourceAlpha" type="matrix" values="0 0 0 0 0 0 0 0 0 0 0 0 0 0 0 0 0 0 127 0" result="hardAlpha"/>
<feOffset dy="4"/>
<feGaussianBlur stdDeviation="25"/>
<feComposite in2="hardAlpha" operator="out"/>
<feColorMatrix type="matrix" values="0 0 0 0 0 0 0 0 0 0 0 0 0 0 0 0 0 0 0.5 0"/>
<feBlend mode="normal" in2="BackgroundImageFix" result="effect1_dropShadow_419_1411"/>
<feBlend mode="normal" in="SourceGraphic" in2="effect1_dropShadow_419_1411" result="shape"/>
</filter>
<filter id="filter1_d_419_1411" x="0.4375" y="157.736" width="169.05" height="171.74" filterUnits="userSpaceOnUse" color-interpolation-filters="sRGB">
<feFlood flood-opacity="0" result="BackgroundImageFix"/>
<feColorMatrix in="SourceAlpha" type="matrix" values="0 0 0 0 0 0 0 0 0 0 0 0 0 0 0 0 0 0 127 0" result="hardAlpha"/>
<feOffset dy="4"/>
<feGaussianBlur stdDeviation="25"/>
<feComposite in2="hardAlpha" operator="out"/>
<feColorMatrix type="matrix" values="0 0 0 0 0 0 0 0 0 0 0 0 0 0 0 0 0 0 0.5 0"/>
<feBlend mode="normal" in2="BackgroundImageFix" result="effect1_dropShadow_419_1411"/>
<feBlend mode="normal" in="SourceGraphic" in2="effect1_dropShadow_419_1411" result="shape"/>
</filter>
<filter id="filter2_d_419_1411" x="0.4375" y="387.304" width="169.05" height="171.74" filterUnits="userSpaceOnUse" color-interpolation-filters="sRGB">
<feFlood flood-opacity="0" result="BackgroundImageFix"/>
<feColorMatrix in="SourceAlpha" type="matrix" values="0 0 0 0 0 0 0 0 0 0 0 0 0 0 0 0 0 0 127 0" result="hardAlpha"/>
<feOffset dy="4"/>
<feGaussianBlur stdDeviation="25"/>
<feComposite in2="hardAlpha" operator="out"/>
<feColorMatrix type="matrix" values="0 0 0 0 0 0 0 0 0 0 0 0 0 0 0 0 0 0 0.5 0"/>
<feBlend mode="normal" in2="BackgroundImageFix" result="effect1_dropShadow_419_1411"/>
<feBlend mode="normal" in="SourceGraphic" in2="effect1_dropShadow_419_1411" result="shape"/>
</filter>
<filter id="filter3_f_419_1411" x="3.32982" y="0.496033" width="591.981" height="611.148" filterUnits="userSpaceOnUse" color-interpolation-filters="sRGB">
<feFlood flood-opacity="0" result="BackgroundImageFix"/>
<feBlend mode="normal" in="SourceGraphic" in2="BackgroundImageFix" result="shape"/>
<feGaussianBlur stdDeviation="25" result="effect1_foregroundBlur_419_1411"/>
</filter>
<filter id="filter4_i_419_1411" x="103.139" y="55.1831" width="414.659" height="599.313" filterUnits="userSpaceOnUse" color-interpolation-filters="sRGB">
<feFlood flood-opacity="0" result="BackgroundImageFix"/>
<feBlend mode="normal" in="SourceGraphic" in2="BackgroundImageFix" result="shape"/>
<feColorMatrix in="SourceAlpha" type="matrix" values="0 0 0 0 0 0 0 0 0 0 0 0 0 0 0 0 0 0 127 0" result="hardAlpha"/>
<feOffset dy="4"/>
<feGaussianBlur stdDeviation="2"/>
<feComposite in2="hardAlpha" operator="arithmetic" k2="-1" k3="1"/>
<feColorMatrix type="matrix" values="0 0 0 0 0 0 0 0 0 0 0 0 0 0 0 0 0 0 0.25 0"/>
<feBlend mode="normal" in2="shape" result="effect1_innerShadow_419_1411"/>
</filter>
<clipPath id="clip0_419_1411">
<rect width="34.525" height="35.87" fill="white" transform="translate(534.65 313.139)"/>
</clipPath>
<clipPath id="clip1_419_1411">
<rect width="34.525" height="35.87" fill="white" transform="translate(67.7 451.239)"/>
</clipPath>
</defs>
</svg>
