<svg width="34" height="44" viewBox="0 0 34 44" fill="none" xmlns="http://www.w3.org/2000/svg">
<path d="M11.0111 37.9622L8.52048 33.8002C7.94351 32.8357 8.38942 31.7693 9.51613 31.4185C10.6433 31.0674 12.0249 31.565 12.6019 32.5294L13.8072 34.5436L29.1814 26.468C30.1668 25.9276 31.6105 26.1969 32.4051 27.0696C32.8565 27.5645 33.0017 28.1473 32.8633 28.6575C32.7576 29.0466 32.4868 29.394 32.0604 29.6276L14.4912 38.9068C13.9541 39.201 13.2504 39.2658 12.5752 39.0826C11.9001 38.8994 11.326 38.4877 11.0111 37.9622Z" fill="#F6F6F6"/>
<path d="M12.1818 24.1485C12.1917 23.1827 13.1997 22.4057 14.4337 22.4135L28.7835 22.3032C30.0175 22.3109 31.0095 23.1004 30.9996 24.0662C30.9974 24.311 30.9308 24.5432 30.8129 24.7541C30.4648 25.375 29.6694 25.8071 28.7477 25.8015C28.7477 25.8015 15.6323 25.9193 14.3983 25.9115C13.1643 25.9038 12.1719 25.1146 12.1818 24.1485Z" fill="#F6F6F6"/>
<path d="M24.1097 9.8229L7.97692 21.1191L9.96879 27.5764C10.2393 28.6672 9.60952 29.9938 8.56295 30.5391C7.51601 31.085 6.44828 30.6424 6.17781 29.5516L4.0416 20.929C3.89438 20.3341 4.01176 19.6376 4.36152 19.0318C4.71129 18.426 5.25597 17.9757 5.84463 17.8061L23.9248 5.5522C24.3922 5.41751 24.8289 5.4729 25.1781 5.67452C25.6361 5.93897 25.9439 6.45483 25.9727 7.12376C26.0236 8.30305 25.1896 9.51124 24.1097 9.8229Z" fill="#7B4AE2"/>
</svg>
