<svg width="24" height="25" viewBox="0 0 24 25" fill="none" xmlns="http://www.w3.org/2000/svg">
<g id="Menu">
<g id="Layer 2">
<g id="menu">
<path id="Vector" d="M20.05 11.748H3.95C3.42533 11.748 3 12.1733 3 12.698V12.798C3 13.3227 3.42533 13.748 3.95 13.748H20.05C20.5747 13.748 21 13.3227 21 12.798V12.698C21 12.1733 20.5747 11.748 20.05 11.748Z" fill="#B0B0B0"/>
<path id="Vector_2" d="M20.05 16.748H3.95C3.42533 16.748 3 17.1733 3 17.698V17.798C3 18.3227 3.42533 18.748 3.95 18.748H20.05C20.5747 18.748 21 18.3227 21 17.798V17.698C21 17.1733 20.5747 16.748 20.05 16.748Z" fill="#B0B0B0"/>
<path id="Vector_3" d="M20.05 6.74802H3.95C3.42533 6.74802 3 7.17335 3 7.69802V7.79802C3 8.32269 3.42533 8.74802 3.95 8.74802H20.05C20.5747 8.74802 21 8.32269 21 7.79802V7.69802C21 7.17335 20.5747 6.74802 20.05 6.74802Z" fill="#B0B0B0"/>
</g>
</g>
</g>
</svg>
