<svg width="534" height="539" viewBox="0 0 534 539" fill="none" xmlns="http://www.w3.org/2000/svg">
<path d="M469.246 261.185C469.246 145.296 375.395 51.3483 259.623 51.3483C143.851 51.3483 50 145.296 50 261.185C50 377.075 143.851 471.022 259.623 471.022C375.395 471.022 469.246 377.075 469.246 261.185Z" fill="#7B4AE2" fill-opacity="0.2"/>
<g filter="url(#filter0_d_419_1597)">
<ellipse cx="472.886" cy="278.611" rx="29.1143" ry="29.1629" fill="#090E16"/>
</g>
<g clip-path="url(#clip0_419_1597)">
<path fill-rule="evenodd" clip-rule="evenodd" d="M485.168 264.029H460.603C459.347 264.029 458.328 265.049 458.328 266.308V290.914C458.328 292.172 459.347 293.192 460.603 293.192H485.168C486.424 293.192 487.443 292.172 487.443 290.914V266.308C487.443 265.049 486.424 264.029 485.168 264.029ZM475.446 290.013V286.867C476.016 287.346 476.635 287.704 477.303 287.944C477.971 288.183 478.646 288.303 479.327 288.303C479.727 288.303 480.075 288.267 480.373 288.194C480.671 288.122 480.92 288.022 481.12 287.895C481.32 287.767 481.469 287.616 481.567 287.442C481.665 287.269 481.714 287.08 481.714 286.877C481.714 286.602 481.636 286.356 481.478 286.139C481.321 285.923 481.107 285.723 480.835 285.54C480.563 285.356 480.241 285.179 479.867 285.009C479.494 284.838 479.091 284.665 478.659 284.488C477.559 284.029 476.738 283.468 476.198 282.806C475.658 282.144 475.388 281.345 475.388 280.407C475.388 279.673 475.535 279.042 475.83 278.514C476.124 277.987 476.526 277.553 477.033 277.212C477.541 276.871 478.129 276.62 478.797 276.46C479.465 276.299 480.172 276.219 480.918 276.219C481.652 276.219 482.302 276.263 482.869 276.351C483.435 276.44 483.957 276.576 484.436 276.759V279.699C484.2 279.535 483.943 279.391 483.664 279.267C483.386 279.142 483.099 279.039 482.805 278.957C482.51 278.875 482.217 278.814 481.925 278.775C481.634 278.736 481.357 278.716 481.095 278.716C480.735 278.716 480.408 278.75 480.113 278.819C479.818 278.888 479.569 278.985 479.366 279.109C479.163 279.234 479.006 279.383 478.895 279.557C478.783 279.73 478.728 279.925 478.728 280.142C478.728 280.378 478.79 280.589 478.914 280.776C479.039 280.963 479.216 281.14 479.445 281.307C479.674 281.474 479.952 281.638 480.28 281.799C480.607 281.959 480.977 282.125 481.39 282.295C481.953 282.531 482.459 282.782 482.908 283.047C483.356 283.313 483.741 283.613 484.062 283.947C484.383 284.281 484.629 284.663 484.799 285.092C484.969 285.522 485.054 286.022 485.054 286.592C485.054 287.378 484.905 288.039 484.607 288.573C484.309 289.107 483.905 289.54 483.394 289.871C482.883 290.202 482.289 290.439 481.611 290.584C480.933 290.728 480.218 290.8 479.465 290.8C478.692 290.8 477.957 290.735 477.259 290.603C476.562 290.472 475.957 290.276 475.446 290.013ZM474.25 279.037H470.211V290.572H467.011V279.037H462.991V276.446H474.25V279.037Z" fill="#7B4AE2" fill-opacity="0.5"/>
</g>
<g filter="url(#filter1_d_419_1597)">
<ellipse cx="79.1143" cy="204.245" rx="29.1143" ry="29.1629" fill="#090E16"/>
</g>
<path d="M90.0065 199.116C89.667 198.999 89.3152 198.888 88.9531 198.784C89.0126 198.54 89.0672 198.3 89.1158 198.064C89.9132 194.187 89.3918 191.063 87.6115 190.035C85.9044 189.049 83.1126 190.077 80.293 192.535C80.0218 192.771 79.75 193.022 79.4782 193.284C79.2971 193.11 79.1163 192.943 78.936 192.782C75.9809 190.154 73.019 189.047 71.2404 190.078C69.5349 191.067 69.0299 194.003 69.7476 197.678C69.8169 198.032 69.898 198.395 69.9896 198.763C69.5704 198.883 69.1657 199.01 68.7785 199.145C65.314 200.355 63.1014 202.251 63.1014 204.218C63.1014 206.249 65.4766 208.287 69.0851 209.522C69.3699 209.62 69.6654 209.712 69.9699 209.799C69.8711 210.198 69.7851 210.588 69.7129 210.969C69.0285 214.58 69.563 217.447 71.2639 218.43C73.0208 219.444 75.9694 218.401 78.8405 215.887C79.0675 215.689 79.2952 215.478 79.5234 215.257C79.8191 215.542 80.1143 215.812 80.408 216.065C83.1891 218.463 85.9358 219.431 87.6352 218.445C89.3903 217.427 89.9607 214.348 89.2202 210.6C89.1636 210.314 89.0978 210.022 89.0239 209.724C89.231 209.663 89.4342 209.6 89.6325 209.534C93.3838 208.289 95.8246 206.276 95.8246 204.218C95.8246 202.244 93.5407 200.335 90.0065 199.116ZM89.1928 208.205C89.0139 208.264 88.8303 208.322 88.6432 208.377C88.2291 207.064 87.6701 205.667 86.9861 204.225C87.6388 202.816 88.1762 201.438 88.5787 200.133C88.9135 200.23 89.2384 200.332 89.5514 200.44C92.5796 201.484 94.4267 203.028 94.4267 204.218C94.4267 205.485 92.4319 207.13 89.1928 208.205ZM87.8488 210.872C88.1763 212.529 88.2231 214.027 88.0061 215.198C87.8113 216.251 87.4193 216.952 86.9347 217.233C85.9034 217.831 83.6981 217.054 81.3197 215.004C81.0471 214.769 80.7724 214.518 80.4969 214.252C81.419 213.242 82.3405 212.068 83.2399 210.764C84.8218 210.623 86.3163 210.393 87.6717 210.08C87.7384 210.349 87.7977 210.614 87.8488 210.872ZM74.2575 217.13C73.25 217.486 72.4475 217.497 71.9624 217.216C70.9302 216.62 70.5011 214.318 71.0864 211.23C71.1535 210.877 71.2333 210.514 71.3252 210.142C72.6657 210.439 74.1493 210.653 75.7351 210.782C76.6405 212.058 77.5886 213.231 78.5441 214.258C78.3354 214.46 78.1274 214.652 77.9207 214.833C76.651 215.945 75.3788 216.733 74.2575 217.13ZM69.5372 208.197C67.9416 207.651 66.6239 206.941 65.7207 206.166C64.9091 205.47 64.4993 204.779 64.4993 204.218C64.4993 203.024 66.2758 201.502 69.2386 200.467C69.5981 200.342 69.9744 200.223 70.365 200.112C70.7745 201.446 71.3116 202.841 71.9598 204.252C71.3032 205.683 70.7584 207.101 70.345 208.45C70.0665 208.37 69.7968 208.286 69.5372 208.197ZM71.1195 197.409C70.5046 194.261 70.913 191.886 71.9407 191.29C73.0355 190.655 75.4563 191.56 78.0077 193.829C78.1708 193.974 78.3346 194.126 78.4988 194.283C77.548 195.306 76.6085 196.47 75.7111 197.739C74.1721 197.882 72.6989 198.111 71.3445 198.418C71.2593 198.075 71.1839 197.738 71.1195 197.409ZM85.2348 200.9C84.911 200.34 84.5786 199.793 84.2397 199.261C85.2838 199.393 86.2841 199.568 87.2235 199.783C86.9415 200.689 86.59 201.635 86.1762 202.606C85.8794 202.041 85.5654 201.472 85.2348 200.9ZM79.4786 195.284C80.1234 195.984 80.7692 196.765 81.4043 197.613C80.7643 197.582 80.1163 197.567 79.463 197.567C78.8159 197.567 78.1727 197.582 77.5367 197.612C78.1725 196.772 78.8238 195.992 79.4786 195.284ZM73.6856 200.91C73.3621 201.471 73.054 202.037 72.7618 202.605C72.3548 201.638 72.0065 200.687 71.722 199.768C72.6557 199.559 73.6513 199.388 74.6887 199.258C74.3451 199.795 74.0099 200.346 73.6856 200.909V200.91ZM74.7186 209.277C73.6467 209.157 72.6362 208.995 71.7027 208.792C71.9918 207.857 72.3477 206.886 72.7634 205.898C73.0563 206.465 73.3657 207.031 73.6911 207.594H73.6912C74.0227 208.167 74.3661 208.729 74.7186 209.277ZM79.5173 213.25C78.8548 212.534 78.1939 211.742 77.5485 210.89C78.175 210.915 78.8138 210.927 79.463 210.927C80.13 210.927 80.7894 210.912 81.4384 210.883C80.8011 211.751 80.1577 212.544 79.5173 213.25ZM86.1895 205.847C86.6269 206.846 86.9956 207.812 87.2884 208.731C86.3396 208.948 85.3152 209.122 84.2359 209.252C84.5756 208.713 84.9109 208.157 85.2404 207.584C85.5738 207.005 85.8903 206.425 86.1895 205.847ZM84.0295 206.885C83.518 207.773 82.9928 208.621 82.4597 209.422C81.4887 209.491 80.4855 209.527 79.463 209.527C78.4447 209.527 77.4542 209.495 76.5003 209.433C75.9457 208.622 75.4091 207.772 74.9008 206.892H74.901C74.394 206.015 73.9275 205.131 73.5047 204.251C73.9274 203.37 74.3927 202.484 74.8967 201.609L74.8966 201.609C75.4019 200.731 75.9338 199.885 76.4833 199.079C77.4565 199.005 78.4544 198.967 79.463 198.967H79.463C80.4761 198.967 81.4753 199.006 82.4482 199.08C82.9893 199.88 83.5176 200.724 84.0249 201.602C84.538 202.489 85.0093 203.369 85.4356 204.231C85.0106 205.109 84.5403 205.997 84.0295 206.885ZM86.9133 191.248C88.0091 191.881 88.4352 194.434 87.7467 197.781C87.7028 197.995 87.6533 198.213 87.5996 198.433C86.242 198.119 84.7678 197.886 83.2243 197.741C82.3252 196.458 81.3934 195.292 80.4581 194.283C80.7096 194.04 80.9607 193.809 81.2107 193.591C83.6266 191.485 85.8845 190.654 86.9133 191.248ZM79.463 201.291C81.0768 201.291 82.3851 202.601 82.3851 204.218C82.3851 205.834 81.0768 207.145 79.463 207.145C77.8492 207.145 76.541 205.834 76.541 204.218C76.541 202.601 77.8492 201.291 79.463 201.291Z" fill="#7B4AE2" fill-opacity="0.5"/>
<g filter="url(#filter2_d_419_1597)">
<ellipse cx="79.1143" cy="390.888" rx="29.1143" ry="29.1629" fill="#090E16"/>
</g>
<g clip-path="url(#clip1_419_1597)">
<path fill-rule="evenodd" clip-rule="evenodd" d="M74.2998 376.307C71.6213 376.307 69.4474 378.484 69.4474 381.167C69.4474 383.85 71.6213 386.028 74.2998 386.028C71.6213 386.028 69.4474 388.205 69.4474 390.888C69.4474 393.571 71.6213 395.749 74.2998 395.749C71.6213 395.749 69.4474 397.926 69.4474 400.609C69.4474 403.292 71.6213 405.47 74.2998 405.47C76.9783 405.47 79.1522 403.292 79.1522 400.609L79.1522 390.888C79.1522 393.571 81.326 395.749 84.0046 395.749C86.6831 395.749 88.8569 393.571 88.8569 390.888C88.8569 388.205 86.6831 386.028 84.0046 386.028C86.6831 386.028 88.8569 383.85 88.8569 381.167C88.8569 378.484 86.6831 376.307 84.0046 376.307H74.2998ZM84.0046 386.028H79.1522L79.1522 390.888C79.1522 388.205 81.326 386.028 84.0046 386.028Z" fill="#7B4AE2" fill-opacity="0.5"/>
</g>
<g filter="url(#filter3_f_419_1597)">
<ellipse cx="259.879" cy="258.282" rx="207.44" ry="207.786" fill="#7B4AE2" fill-opacity="0.2"/>
</g>
<g filter="url(#filter4_i_419_1597)">
<path fill-rule="evenodd" clip-rule="evenodd" d="M217.998 338.349C247.881 354.304 281.391 352.531 307.646 338.348V373.3L307.943 373.292V393.814H217.998V338.349Z" fill="#BB7D52"/>
<path fill-rule="evenodd" clip-rule="evenodd" d="M217.998 373.172C247.88 389.128 281.391 387.355 307.646 373.172V395.461L327.836 394.957L328.086 394.967C328.086 448.692 199.86 456.734 199.86 394.886L200.361 394.864L217.998 394.954V373.172Z" fill="#E8A475"/>
<path fill-rule="evenodd" clip-rule="evenodd" d="M165.552 151.281C236.864 105.799 328.097 121.973 358.921 151.965C367.833 173.445 368.463 194.164 365.841 216.404C371.862 212.077 379.021 213.067 384.662 217.097C386.946 235.552 393.068 272.059 365.637 273.642C356.193 391.406 183.156 406.064 159.765 274.028C132.578 273.088 139.909 236.193 141.608 218.475C148.13 213.505 155.579 216.006 160.202 218.23L165.552 151.281Z" fill="#E8A475"/>
<path d="M237.783 62.0841L243.681 58.2417L243.682 58.2428C246.959 56.0872 250.61 54.3067 251.921 54.3067C253.232 54.4005 256.79 55.6189 259.786 57.1181C264.561 59.4607 266.059 59.8358 270.179 59.367C274.018 58.8987 275.797 59.18 278.98 60.7729C282.07 62.3659 283.849 62.741 287.126 62.1784C290.309 61.7101 292.369 62.0852 295.928 63.5844C299.298 65.0836 301.077 65.3644 302.762 64.7085C305.852 63.4906 308.848 65.1774 312.125 69.9563C315.309 74.8296 318.586 75.673 327.293 73.8924C332.724 72.8615 333.567 72.8615 334.971 74.1732C336.282 75.5792 336.375 76.4226 335.252 81.4828C334.597 84.575 334.316 87.3865 334.597 87.6672C334.784 87.9485 337.499 87.4797 340.402 86.7301C349.484 84.3875 351.731 86.4493 349.859 95.6327C349.39 98.0691 349.484 98.0691 353.323 97.3195C355.476 96.9444 359.222 96.5699 361.656 96.4761C365.401 96.4761 366.338 96.8506 367.648 98.8187C369.053 100.88 369.053 101.723 367.929 105.659C366.338 111.282 366.525 113.344 369.334 118.778C373.079 126.181 374.858 142.487 372.61 148.952C371.581 151.764 371.3 151.951 367.929 151.483C365.869 151.202 356.975 147.079 347.424 141.925C320.084 127.212 313.53 125.151 288.812 123.558C259.973 121.59 234.413 124.495 211.66 132.085C193.309 138.27 174.77 147.735 172.429 152.139C170.369 156.075 168.59 167.507 168.028 181.001C167.552 191.015 166.933 194.204 169.107 194.64L171.546 194.233C174.917 193.484 183.946 192.153 186.005 192.059C188.533 192.059 192.747 190.747 198.177 188.123C206.229 184.281 206.792 184.094 215.873 184.094C226.547 184.094 233.476 186.155 239.656 191.028C241.622 192.621 243.776 193.933 244.431 193.933C245.086 193.933 249.862 195.62 254.917 197.681C266.528 202.367 271.209 202.555 280.291 198.712C283.755 197.213 288.812 195.433 291.527 194.777C294.148 194.12 297.894 192.34 299.673 190.934C305.665 186.249 313.062 184.094 323.549 184.094C332.724 184.094 333.098 184.187 340.87 188.03C345.551 190.372 350.233 192.059 352.105 192.059C353.885 192.153 358.098 192.715 361.375 193.371L367.367 194.683L366.712 188.498C365.682 178.377 362.592 166.664 359.128 159.729C356.319 154.107 356.038 153.076 357.162 151.951C358.286 150.733 359.034 150.827 362.686 152.607C365.027 153.732 367.929 155.606 369.24 156.824C373.173 160.479 375.42 171.817 375.513 187.842V197.213L367.367 194.683L361.375 193.371C358.098 192.715 353.885 192.153 352.105 192.059C350.233 192.059 345.551 190.372 340.87 188.03C333.098 184.187 332.724 184.094 323.549 184.094C313.062 184.094 305.665 186.249 299.673 190.934C297.894 192.34 294.148 194.12 291.527 194.777C288.812 195.433 283.755 197.213 280.291 198.712C271.209 202.555 266.528 202.367 254.917 197.681C249.862 195.62 245.086 193.933 244.431 193.933C243.776 193.933 241.622 192.621 239.656 191.028C233.476 186.155 226.547 184.094 215.873 184.094C206.792 184.094 206.229 184.281 198.177 188.123C192.747 190.747 188.533 192.059 186.005 192.059C183.946 192.153 174.917 193.484 171.546 194.233C168.028 194.748 170.351 194.89 169.107 194.64L165.855 202.784L163.009 201.563L159.757 197.491C158.447 194.023 158.104 159.26 159.227 147.265C160.35 134.895 160.35 134.802 158.291 132.553C155.576 129.648 156.231 127.305 160.444 125.244C164.47 123.369 164.564 122.9 162.036 119.621C158.384 115.029 160.35 110.719 167.092 109.032C170.743 108.189 171.961 106.127 170.088 104.159C166.53 100.129 169.994 96.475 177.298 96.475C181.698 96.475 181.792 96.3812 183.571 92.4457C184.788 89.8218 185.443 86.3545 185.443 81.8563C185.443 75.6714 185.631 75.1093 187.878 74.0784C189.844 73.235 190.967 73.3288 194.526 74.9218C196.866 75.9527 199.301 76.796 199.956 76.796C201.829 76.796 204.076 73.6101 204.731 70.1428C205.574 65.9259 207.54 62.7399 209.6 62.7399C210.536 62.7399 212.877 63.8646 214.75 65.1763C219.431 68.269 222.146 67.7064 224.3 63.0212C227.858 55.4308 230.105 54.5875 234.786 59.1789L237.783 62.0841Z" fill="#2C1B18"/>
<path fill-rule="evenodd" clip-rule="evenodd" d="M246.958 261.234C247.988 265.264 250.984 268.45 256.227 270.98C260.441 273.042 262.594 273.511 268.774 273.511C274.953 273.511 277.107 273.042 281.32 270.98C286.564 268.45 289.56 265.264 290.59 261.234L291.058 259.173H268.774H246.49L246.958 261.234Z" fill="#AF754C"/>
<path fill-rule="evenodd" clip-rule="evenodd" d="M242.651 298.905C243.868 306.683 249.767 314.648 257.07 318.397C262.407 321.208 272.238 321.77 277.856 319.615C286.283 316.335 293.586 307.526 294.897 298.905H242.651Z" fill="#3E1B1B"/>
<path fill-rule="evenodd" clip-rule="evenodd" d="M160.614 233.106C155.078 238.695 157.212 240.159 156.23 242.398C157.129 248.37 159.646 247.463 160.717 247.685C161.438 247.154 153.613 247.748 161.324 243.701L161.036 239.87L160.614 233.106Z" fill="#3E291B"/>
<path fill-rule="evenodd" clip-rule="evenodd" d="M379.214 249.435C385.314 244.47 383.347 242.787 384.562 240.666C384.304 234.631 381.705 235.264 380.664 234.929C379.891 235.38 387.735 235.625 379.636 238.826L379.514 242.665L379.214 249.435Z" fill="#3E291B"/>
<path d="M301.808 479.673L307.821 474.78C309.214 473.647 311.262 473.858 312.395 475.252C313.528 476.647 313.317 478.696 311.923 479.83L309.014 482.198L330.139 500.013C331.533 501.147 331.744 503.196 330.611 504.59C329.969 505.382 329.031 505.792 328.087 505.792C327.366 505.792 326.64 505.553 326.038 505.062L301.808 484.722C301.049 484.104 300.608 483.177 300.608 482.198C300.608 481.218 301.049 480.291 301.808 479.673Z" fill="#7B4AE2"/>
<path d="M328.507 449.778C330.233 449.792 331.622 451.204 331.608 452.931L331.339 502.688C331.325 504.416 329.915 505.805 328.189 505.791C327.751 505.788 327.336 505.695 326.959 505.53C325.849 505.043 325.077 503.928 325.087 502.638L325.357 452.882C325.37 451.154 326.781 449.764 328.507 449.778Z" fill="#7B4AE2"/>
<path d="M342.229 484.005L344.449 482.198L336.54 475.761C335.147 474.627 334.936 472.578 336.069 471.184C337.201 469.789 339.249 469.578 340.643 470.712L351.654 479.673C352.413 480.291 352.854 481.218 352.854 482.198C352.854 483.177 352.413 484.104 351.654 484.722L346.331 489.054C345.728 489.544 345.003 489.784 344.282 489.784C343.337 489.784 342.4 489.373 341.757 488.582C340.625 487.188 340.836 485.138 342.229 484.005Z" fill="#C83267"/>
<path fill-rule="evenodd" clip-rule="evenodd" d="M204.168 389.219C176.548 391.912 151.456 402.215 130.576 419.389C112.609 434.104 107.596 445.799 94.4423 462.455C121.244 490.285 157.284 513.865 196.585 526.889C222.801 535.522 240.685 538.306 268.774 538.306C296.864 538.306 314.747 535.522 340.964 526.889C380.612 514.198 414.011 493.401 444.117 463.551C423.497 436.913 415.01 419.454 381.785 403.05C367.834 396.088 351.449 391.076 338.903 389.776L332.994 389.243L332.713 389.237L332.068 393.675C329.259 414.84 302.763 430.436 269.71 430.436C236.66 430.436 210.63 415.026 207.259 393.582C206.604 389.312 206.323 388.94 204.17 389.219H204.168Z" fill="#090E16"/>
<path d="M323.996 470.683L321.971 467.293C321.502 466.508 321.864 465.639 322.78 465.354C323.697 465.068 324.82 465.473 325.289 466.258L326.269 467.899L338.769 461.322C339.57 460.882 340.743 461.101 341.39 461.812C341.756 462.215 341.875 462.69 341.762 463.105C341.676 463.422 341.456 463.705 341.109 463.895L326.825 471.452C326.389 471.691 325.816 471.744 325.268 471.595C324.719 471.446 324.252 471.111 323.996 470.683Z" fill="#F6F6F6"/>
<path d="M324.948 459.433C324.956 458.647 325.775 458.014 326.778 458.02L338.445 457.93C339.448 457.937 340.255 458.579 340.247 459.366C340.245 459.565 340.191 459.755 340.095 459.926C339.812 460.432 339.165 460.784 338.416 460.779C338.416 460.779 327.753 460.875 326.75 460.869C325.746 460.862 324.94 460.22 324.948 459.433Z" fill="#F6F6F6"/>
<path d="M334.645 447.767L321.529 456.966L323.148 462.225C323.368 463.113 322.856 464.193 322.005 464.637C321.154 465.082 320.286 464.722 320.066 463.833L318.33 456.811C318.21 456.327 318.305 455.759 318.59 455.266C318.874 454.773 319.317 454.406 319.795 454.268L334.495 444.289C334.875 444.179 335.23 444.224 335.514 444.388C335.886 444.604 336.136 445.024 336.16 445.569C336.201 446.529 335.523 447.513 334.645 447.767Z" fill="#7B4AE2"/>
</g>
<path d="M334.556 216.443C334.556 220.654 325.605 230.216 310.165 230.216C294.726 230.216 285.775 220.768 285.775 216.443C285.775 212.118 294.614 202.784 310.165 202.784C325.717 202.784 334.556 212.231 334.556 216.443Z" fill="#F6F6F6"/>
<path d="M310.165 209.386C322.361 209.386 330.416 215.191 333.325 219.744C334.108 218.492 334.556 217.354 334.556 216.443C334.556 212.231 325.717 202.784 310.165 202.784C294.614 202.784 285.775 212.231 285.775 216.443C285.775 217.354 286.222 218.492 287.006 219.744C289.915 215.305 297.97 209.386 310.165 209.386Z" fill="#E0E0E0"/>
<path d="M334.556 216.443C334.556 220.654 325.605 230.216 310.165 230.216C294.726 230.216 285.775 220.768 285.775 216.443C285.775 212.118 294.614 202.784 310.165 202.784C325.717 202.784 334.556 212.231 334.556 216.443Z" stroke="#252423" stroke-miterlimit="10" stroke-linecap="round" stroke-linejoin="round"/>
<path d="M310.165 205.971C324.822 205.971 333.325 215.305 333.437 219.63C334.22 218.378 334.556 217.354 334.556 216.443C334.556 212.231 325.717 202.784 310.165 202.784C294.614 202.784 285.775 212.231 285.775 216.443C285.775 217.354 286.111 218.378 286.894 219.63C287.006 215.419 295.509 205.971 310.165 205.971Z" fill="#3E1B1B" stroke="#252423" stroke-miterlimit="10" stroke-linecap="round" stroke-linejoin="round"/>
<path d="M310.165 226.687C315.727 226.687 320.235 222.101 320.235 216.443C320.235 210.785 315.727 206.199 310.165 206.199C304.604 206.199 300.096 210.785 300.096 216.443C300.096 222.101 304.604 226.687 310.165 226.687Z" fill="#58B858"/>
<path d="M317.102 209.158C318.333 210.752 319.116 212.801 319.116 214.963C319.116 219.972 315.088 224.183 310.054 224.183C305.019 224.183 300.991 220.085 300.991 214.963C300.991 212.801 301.774 210.752 303.005 209.158C301.327 210.979 300.096 213.597 300.096 216.443C300.096 222.134 304.571 226.687 310.165 226.687C315.76 226.687 320.235 222.134 320.235 216.443C320.235 213.597 319.004 210.979 317.102 209.158Z" fill="#5A9446"/>
<path d="M310.165 226.687C315.727 226.687 320.235 222.101 320.235 216.443C320.235 210.785 315.727 206.199 310.165 206.199C304.604 206.199 300.096 210.785 300.096 216.443C300.096 222.101 304.604 226.687 310.165 226.687Z" stroke="#252423" stroke-miterlimit="10" stroke-linecap="round" stroke-linejoin="round"/>
<path d="M310.165 220.996C312.637 220.996 314.641 218.958 314.641 216.443C314.641 213.928 312.637 211.89 310.165 211.89C307.694 211.89 305.69 213.928 305.69 216.443C305.69 218.958 307.694 220.996 310.165 220.996Z" fill="#3E1B1B" stroke="#252423" stroke-miterlimit="10" stroke-linecap="round" stroke-linejoin="round"/>
<path d="M306.361 215.191C308.277 215.191 309.83 213.611 309.83 211.662C309.83 209.714 308.277 208.134 306.361 208.134C304.446 208.134 302.893 209.714 302.893 211.662C302.893 213.611 304.446 215.191 306.361 215.191Z" fill="#F6F6F6" stroke="#252423" stroke-miterlimit="10" stroke-linecap="round" stroke-linejoin="round"/>
<path d="M242.685 216.443C242.685 220.654 233.734 230.216 218.295 230.216C202.855 230.216 193.904 220.768 193.904 216.443C193.904 212.118 202.743 202.784 218.295 202.784C233.846 202.784 242.685 212.231 242.685 216.443Z" fill="#F6F6F6"/>
<path d="M218.295 209.386C230.49 209.386 238.545 215.191 241.454 219.744C242.238 218.492 242.685 217.354 242.685 216.443C242.685 212.231 233.846 202.784 218.295 202.784C202.743 202.784 193.904 212.231 193.904 216.443C193.904 217.354 194.352 218.492 195.135 219.744C198.044 215.305 206.099 209.386 218.295 209.386Z" fill="#E0E0E0"/>
<path d="M242.685 216.443C242.685 220.654 233.734 230.216 218.295 230.216C202.855 230.216 193.904 220.768 193.904 216.443C193.904 212.118 202.743 202.784 218.295 202.784C233.846 202.784 242.685 212.231 242.685 216.443Z" stroke="#252423" stroke-miterlimit="10" stroke-linecap="round" stroke-linejoin="round"/>
<path d="M218.295 205.971C232.951 205.971 241.454 215.305 241.566 219.63C242.349 218.378 242.685 217.354 242.685 216.443C242.685 212.231 233.846 202.784 218.295 202.784C202.743 202.784 193.904 212.231 193.904 216.443C193.904 217.354 194.24 218.378 195.023 219.63C195.135 215.419 203.638 205.971 218.295 205.971Z" fill="#3E1B1B" stroke="#252423" stroke-miterlimit="10" stroke-linecap="round" stroke-linejoin="round"/>
<path d="M218.295 226.687C223.856 226.687 228.364 222.101 228.364 216.443C228.364 210.785 223.856 206.199 218.295 206.199C212.733 206.199 208.225 210.785 208.225 216.443C208.225 222.101 212.733 226.687 218.295 226.687Z" fill="#58B858"/>
<path d="M225.231 209.158C226.462 210.752 227.245 212.801 227.245 214.963C227.245 219.972 223.217 224.183 218.183 224.183C213.148 224.183 209.12 220.085 209.12 214.963C209.12 212.801 209.903 210.752 211.134 209.158C209.456 210.979 208.225 213.597 208.225 216.443C208.225 222.134 212.7 226.687 218.295 226.687C223.889 226.687 228.364 222.134 228.364 216.443C228.364 213.597 227.133 210.979 225.231 209.158Z" fill="#5A9446"/>
<path d="M218.295 226.687C223.856 226.687 228.364 222.101 228.364 216.443C228.364 210.785 223.856 206.199 218.295 206.199C212.733 206.199 208.225 210.785 208.225 216.443C208.225 222.101 212.733 226.687 218.295 226.687Z" stroke="#252423" stroke-miterlimit="10" stroke-linecap="round" stroke-linejoin="round"/>
<path d="M218.294 220.996C220.766 220.996 222.77 218.958 222.77 216.443C222.77 213.928 220.766 211.89 218.294 211.89C215.823 211.89 213.819 213.928 213.819 216.443C213.819 218.958 215.823 220.996 218.294 220.996Z" fill="#3E1B1B" stroke="#252423" stroke-miterlimit="10" stroke-linecap="round" stroke-linejoin="round"/>
<path d="M214.491 215.191C216.406 215.191 217.959 213.611 217.959 211.662C217.959 209.714 216.406 208.134 214.491 208.134C212.575 208.134 211.022 209.714 211.022 211.662C211.022 213.611 212.575 215.191 214.491 215.191Z" fill="#F6F6F6" stroke="#252423" stroke-miterlimit="10" stroke-linecap="round" stroke-linejoin="round"/>
<defs>
<filter id="filter0_d_419_1597" x="393.771" y="203.448" width="158.229" height="158.326" filterUnits="userSpaceOnUse" color-interpolation-filters="sRGB">
<feFlood flood-opacity="0" result="BackgroundImageFix"/>
<feColorMatrix in="SourceAlpha" type="matrix" values="0 0 0 0 0 0 0 0 0 0 0 0 0 0 0 0 0 0 127 0" result="hardAlpha"/>
<feOffset dy="4"/>
<feGaussianBlur stdDeviation="25"/>
<feComposite in2="hardAlpha" operator="out"/>
<feColorMatrix type="matrix" values="0 0 0 0 0 0 0 0 0 0 0 0 0 0 0 0 0 0 0.5 0"/>
<feBlend mode="normal" in2="BackgroundImageFix" result="effect1_dropShadow_419_1597"/>
<feBlend mode="normal" in="SourceGraphic" in2="effect1_dropShadow_419_1597" result="shape"/>
</filter>
<filter id="filter1_d_419_1597" x="0" y="129.082" width="158.229" height="158.326" filterUnits="userSpaceOnUse" color-interpolation-filters="sRGB">
<feFlood flood-opacity="0" result="BackgroundImageFix"/>
<feColorMatrix in="SourceAlpha" type="matrix" values="0 0 0 0 0 0 0 0 0 0 0 0 0 0 0 0 0 0 127 0" result="hardAlpha"/>
<feOffset dy="4"/>
<feGaussianBlur stdDeviation="25"/>
<feComposite in2="hardAlpha" operator="out"/>
<feColorMatrix type="matrix" values="0 0 0 0 0 0 0 0 0 0 0 0 0 0 0 0 0 0 0.5 0"/>
<feBlend mode="normal" in2="BackgroundImageFix" result="effect1_dropShadow_419_1597"/>
<feBlend mode="normal" in="SourceGraphic" in2="effect1_dropShadow_419_1597" result="shape"/>
</filter>
<filter id="filter2_d_419_1597" x="0" y="315.725" width="158.229" height="158.326" filterUnits="userSpaceOnUse" color-interpolation-filters="sRGB">
<feFlood flood-opacity="0" result="BackgroundImageFix"/>
<feColorMatrix in="SourceAlpha" type="matrix" values="0 0 0 0 0 0 0 0 0 0 0 0 0 0 0 0 0 0 127 0" result="hardAlpha"/>
<feOffset dy="4"/>
<feGaussianBlur stdDeviation="25"/>
<feComposite in2="hardAlpha" operator="out"/>
<feColorMatrix type="matrix" values="0 0 0 0 0 0 0 0 0 0 0 0 0 0 0 0 0 0 0.5 0"/>
<feBlend mode="normal" in2="BackgroundImageFix" result="effect1_dropShadow_419_1597"/>
<feBlend mode="normal" in="SourceGraphic" in2="effect1_dropShadow_419_1597" result="shape"/>
</filter>
<filter id="filter3_f_419_1597" x="2.43909" y="0.496033" width="514.879" height="515.572" filterUnits="userSpaceOnUse" color-interpolation-filters="sRGB">
<feFlood flood-opacity="0" result="BackgroundImageFix"/>
<feBlend mode="normal" in="SourceGraphic" in2="BackgroundImageFix" result="shape"/>
<feGaussianBlur stdDeviation="25" result="effect1_foregroundBlur_419_1597"/>
</filter>
<filter id="filter4_i_419_1597" x="94.4423" y="54.3067" width="349.675" height="488" filterUnits="userSpaceOnUse" color-interpolation-filters="sRGB">
<feFlood flood-opacity="0" result="BackgroundImageFix"/>
<feBlend mode="normal" in="SourceGraphic" in2="BackgroundImageFix" result="shape"/>
<feColorMatrix in="SourceAlpha" type="matrix" values="0 0 0 0 0 0 0 0 0 0 0 0 0 0 0 0 0 0 127 0" result="hardAlpha"/>
<feOffset dy="4"/>
<feGaussianBlur stdDeviation="2"/>
<feComposite in2="hardAlpha" operator="arithmetic" k2="-1" k3="1"/>
<feColorMatrix type="matrix" values="0 0 0 0 0 0 0 0 0 0 0 0 0 0 0 0 0 0 0.25 0"/>
<feBlend mode="normal" in2="shape" result="effect1_innerShadow_419_1597"/>
</filter>
<clipPath id="clip0_419_1597">
<rect width="29.1143" height="29.1629" fill="white" transform="translate(458.328 264.029)"/>
</clipPath>
<clipPath id="clip1_419_1597">
<rect width="29.1143" height="29.1629" fill="white" transform="translate(64.5571 376.307)"/>
</clipPath>
</defs>
</svg>
