<svg width="64" height="65" viewBox="0 0 64 65" fill="none" xmlns="http://www.w3.org/2000/svg">
<g clip-path="url(#clip0_21_3162)">
<path fill-rule="evenodd" clip-rule="evenodd" d="M21.4167 0.554443C15.5287 0.554443 10.75 5.33311 10.75 11.2211C10.75 17.1091 15.5287 21.8878 21.4167 21.8878C15.5287 21.8878 10.75 26.6664 10.75 32.5544C10.75 38.4424 15.5287 43.2211 21.4167 43.2211C15.5287 43.2211 10.75 47.9998 10.75 53.8878C10.75 59.7758 15.5287 64.5545 21.4167 64.5545C27.3047 64.5545 32.0833 59.7758 32.0833 53.8878L32.0833 32.5544C32.0833 38.4424 36.862 43.2211 42.75 43.2211C48.638 43.2211 53.4167 38.4424 53.4167 32.5544C53.4167 26.6664 48.638 21.8878 42.75 21.8878C48.638 21.8878 53.4167 17.1091 53.4167 11.2211C53.4167 5.33311 48.638 0.554443 42.75 0.554443H21.4167ZM42.75 21.8878H32.0833L32.0833 32.5544C32.0833 26.6664 36.862 21.8878 42.75 21.8878Z" fill="#7B4AE2" fill-opacity="0.5"/>
</g>
<defs>
<clipPath id="clip0_21_3162">
<rect width="64" height="64" fill="white" transform="translate(0 0.554443)"/>
</clipPath>
</defs>
</svg>
