<svg width="64" height="65" viewBox="0 0 64 65" fill="none" xmlns="http://www.w3.org/2000/svg">
<path fill-rule="evenodd" clip-rule="evenodd" d="M32.0003 2.05444C14.7435 2.05444 0.75 16.0453 0.75 33.3047C0.75 47.1119 9.70415 58.8258 22.1208 62.958C23.6826 63.2473 24.256 62.2801 24.256 61.4547C24.256 60.7095 24.227 58.2478 24.2136 55.6365C15.5197 57.5269 13.6852 51.9494 13.6852 51.9494C12.2637 48.3373 10.2154 47.3768 10.2154 47.3768C7.3801 45.4373 10.4292 45.4771 10.4292 45.4771C13.5672 45.6976 15.2196 48.6975 15.2196 48.6975C18.0068 53.475 22.5302 52.0938 24.3134 51.2953C24.5939 49.2755 25.4038 47.8969 26.2975 47.1165C19.3564 46.3263 12.0598 43.6468 12.0598 31.6725C12.0598 28.2607 13.2805 25.473 15.2796 23.2845C14.9551 22.4974 13.8855 19.319 15.5823 15.0145C15.5823 15.0145 18.2065 14.1746 24.1784 18.2178C26.6711 17.5254 29.3445 17.1781 32.0003 17.1662C34.656 17.1781 37.3315 17.5254 39.8289 18.2178C45.7935 14.1746 48.414 15.0145 48.414 15.0145C50.115 19.319 49.0449 22.4974 48.7204 23.2845C50.7241 25.473 51.9366 28.2607 51.9366 31.6725C51.9366 43.6752 44.626 46.3181 37.6673 47.0917C38.7882 48.0615 39.7869 49.9633 39.7869 52.8788C39.7869 57.0601 39.7507 60.4254 39.7507 61.4547C39.7507 62.2863 40.3132 63.2607 41.8973 62.9538C54.3072 58.817 63.25 47.1072 63.25 33.3047C63.25 16.0453 49.2586 2.05444 32.0003 2.05444ZM12.4542 46.5711C12.3854 46.7263 12.1412 46.7729 11.9186 46.6663C11.692 46.5644 11.5647 46.3527 11.6382 46.1969C11.7054 46.037 11.9502 45.9925 12.1763 46.0997C12.4035 46.2016 12.5329 46.4153 12.4542 46.5711ZM13.9914 47.9427C13.8424 48.0809 13.551 48.0167 13.3533 47.7983C13.1489 47.5804 13.1106 47.2891 13.2617 47.1489C13.4154 47.0107 13.698 47.0754 13.9029 47.2932C14.1073 47.5137 14.1472 47.803 13.9914 47.9427ZM15.046 49.6976C14.8545 49.8306 14.5414 49.7059 14.3479 49.428C14.1564 49.1501 14.1564 48.8168 14.352 48.6833C14.5461 48.5498 14.8545 48.6699 15.0506 48.9457C15.2416 49.2282 15.2416 49.5615 15.046 49.6976ZM16.8294 51.73C16.6581 51.9189 16.2933 51.8682 16.0263 51.6105C15.7531 51.3585 15.677 51.0009 15.8488 50.812C16.0221 50.6226 16.389 50.6759 16.6581 50.9315C16.9293 51.183 17.0121 51.5432 16.8294 51.73ZM19.1344 52.4161C19.0588 52.6609 18.7075 52.7722 18.3535 52.6682C18.0001 52.561 17.7687 52.2744 17.8402 52.027C17.9136 51.7807 18.2666 51.6648 18.6231 51.776C18.9761 51.8826 19.2079 52.1672 19.1344 52.4161ZM21.7576 52.7072C21.7664 52.9649 21.4662 53.1786 21.0946 53.1833C20.721 53.1916 20.4188 52.983 20.4147 52.7294C20.4147 52.4691 20.7081 52.2575 21.0817 52.2513C21.4533 52.244 21.7576 52.451 21.7576 52.7072ZM24.3345 52.6084C24.379 52.8599 24.1208 53.1181 23.7518 53.187C23.3891 53.2532 23.0532 53.0979 23.0071 52.8485C22.9621 52.5908 23.225 52.3326 23.5872 52.2658C23.9567 52.2017 24.2874 52.3528 24.3345 52.6084Z" fill="#7B4AE2" fill-opacity="0.5"/>
</svg>
