<svg width="64" height="65" viewBox="0 0 64 65" fill="none" xmlns="http://www.w3.org/2000/svg">
<g clip-path="url(#clip0_314_321)">
<path d="M31.9316 63.5167L9.82016 57.3784L4.84306 1.55444H59.0886L54.1063 57.3691L31.9316 63.5167Z" stroke="#7B4AE2" stroke-opacity="0.5" stroke-width="2"/>
<path fill-rule="evenodd" clip-rule="evenodd" d="M46.4245 48.3179L46.5307 47.1243L48.1909 28.5253L48.3633 26.6282H22.6175L21.9718 19.3939H31.9537H48.9834L49.1478 17.8059L49.4697 14.2245L49.6386 12.3291H31.9537H14.251L14.4201 14.2245L16.1565 33.6928H31.9659H40.6409L39.8208 42.8552L31.9646 44.9756L24.067 42.8597L23.564 37.2253H19.7408H16.4722L17.4619 48.3179L31.9334 52.3352L46.4245 48.3179Z" fill="#7B4AE2" fill-opacity="0.5"/>
</g>
<defs>
<clipPath id="clip0_314_321">
<rect width="64" height="64" fill="white" transform="translate(-6.10352e-05 0.554443)"/>
</clipPath>
</defs>
</svg>
