<svg width="64" height="65" viewBox="0 0 64 65" fill="none" xmlns="http://www.w3.org/2000/svg">
<g clip-path="url(#clip0_21_3161)">
<path fill-rule="evenodd" clip-rule="evenodd" d="M0.749939 9.30444C0.749939 4.88617 4.33166 1.30444 8.74994 1.30444H55.2499C59.6682 1.30444 63.2499 4.88617 63.2499 9.30444V55.8044C63.2499 60.2227 59.6682 63.8044 55.2499 63.8044H8.74994C4.33166 63.8044 0.749939 60.2227 0.749939 55.8044V9.30444ZM17.1835 53.5339C17.1835 53.534 17.1835 53.534 17.1835 53.534L17.1836 53.5339C18.5681 56.4704 21.2954 58.9035 25.9937 58.9035C31.1962 58.9035 34.762 56.1346 34.762 50.0513V32.9347C34.762 31.3128 33.4472 29.998 31.8253 29.998C30.2034 29.998 28.8886 31.3128 28.8886 32.9347V49.9682C28.8886 52.9047 27.6719 53.6597 25.7419 53.6597C22.9351 53.6597 19.9798 51.8417 17.5785 53.295L17.1836 53.5339L17.1836 53.5339C17.1835 53.5338 17.1834 53.5339 17.1835 53.5339ZM44.5055 52.2985C43.3176 51.2855 41.6567 50.7599 40.3056 51.5422C38.9851 52.3067 38.4617 54.0069 39.471 55.1513C41.4409 57.3847 44.482 58.904 48.6504 58.904C54.2302 58.904 58.3836 56.0095 58.3836 50.723C58.3836 45.8146 55.5726 43.6332 50.58 41.4934L49.1117 40.8642C46.5948 39.7733 45.5039 39.0599 45.5039 37.2978C45.5039 35.8716 46.5948 34.7808 48.3149 34.7808C49.0313 34.7808 49.6407 34.9108 50.1821 35.2002C51.5565 35.9346 53.1984 36.5863 54.5096 35.7443C55.7176 34.9685 56.1478 33.339 55.1648 32.2927C53.406 30.4207 51.1663 29.6622 48.3148 29.6622C43.0704 29.6622 39.7141 33.0186 39.7141 37.4238C39.7141 42.2066 42.5251 44.4721 46.7627 46.2758L48.2307 46.9055C50.9158 48.0798 52.51 48.7931 52.51 50.8069C52.51 52.4851 50.9581 53.7019 48.5244 53.7019C46.8005 53.7019 45.5229 53.1662 44.5055 52.2985Z" fill="#7B4AE2" fill-opacity="0.5"/>
</g>
<defs>
<clipPath id="clip0_21_3161">
<rect x="-6.10352e-05" y="0.554443" width="64" height="64" rx="8" fill="white"/>
</clipPath>
</defs>
</svg>
