<svg width="64" height="65" viewBox="0 0 64 65" fill="none" xmlns="http://www.w3.org/2000/svg">
<path d="M54.0374 8.55444H31.4146C31.4146 11.2788 32.4904 13.8915 34.4054 15.8179C36.3205 17.7442 38.9177 18.8265 41.626 18.8265H45.7945V22.8737C45.7961 25.596 46.8718 28.2063 48.7853 30.1312C50.6989 32.0561 53.2938 33.1382 56 33.1398V10.5287C56 10.0051 55.7932 9.50293 55.4251 9.13269C55.0571 8.76244 54.5579 8.55444 54.0374 8.55444Z" fill="#7B4AE2" fill-opacity="0.4"/>
<path d="M42.33 20.2617H19.7074C19.709 22.9838 20.7848 25.5939 22.6985 27.5186C24.6122 29.4434 27.2073 30.5254 29.9137 30.527H34.0806V34.5877C34.0837 37.3098 35.161 39.9192 37.0758 41.8429C38.9906 43.7666 41.5864 44.8471 44.2928 44.8471V22.2358C44.2928 21.7123 44.086 21.2101 43.7179 20.8399C43.3498 20.4697 42.8506 20.2617 42.33 20.2617Z" fill="url(#paint0_linear_347_73)" fill-opacity="0.75"/>
<path d="M30.6228 31.9692H8C7.99974 33.3182 8.26368 34.6541 8.77673 35.9005C9.28978 37.1469 10.0419 38.2794 10.9901 39.2334C11.9384 40.1873 13.0642 40.9441 14.3032 41.4604C15.5422 41.9767 16.8702 42.2424 18.2114 42.2424H22.3917V46.2893C22.3932 49.0093 23.4673 51.6176 25.3783 53.5421C27.2894 55.4665 29.8812 56.5499 32.5854 56.5546V33.9433C32.5854 33.4198 32.3786 32.9177 32.0105 32.5474C31.6425 32.1772 31.1433 31.9692 30.6228 31.9692Z" fill="url(#paint1_linear_347_73)" fill-opacity="0.75"/>
<defs>
<linearGradient id="paint0_linear_347_73" x1="38.8167" y1="15.4903" x2="29.1947" y2="25.4732" gradientUnits="userSpaceOnUse">
<stop offset="0.18" stop-color="#7B4AE2" stop-opacity="0.5"/>
<stop offset="1" stop-color="#7B4AE2" stop-opacity="0.75"/>
</linearGradient>
<linearGradient id="paint1_linear_347_73" x1="724.01" y1="676.424" x2="310.718" y2="1083.05" gradientUnits="userSpaceOnUse">
<stop offset="0.18" stop-color="#7B4AE2" stop-opacity="0.75"/>
<stop offset="1" stop-color="#7B4AE2"/>
</linearGradient>
</defs>
</svg>
