<svg width="33" height="33" viewBox="0 0 33 33" fill="none" xmlns="http://www.w3.org/2000/svg">
<path d="M16.4919 0.0736389C25.6007 0.0736389 32.984 7.23763 32.984 16.0737C32.984 24.9098 25.6007 32.0736 16.4919 32.0736C7.38316 32.0736 0 24.9096 0 16.0737C0 7.23774 7.38327 0.0736389 16.4919 0.0736389Z" fill="#888888"/>
<path d="M9.29323 22.0576H12.3814V12.0716H9.29323V22.0576ZM21.3242 11.7257C19.8255 11.7257 18.4844 12.2567 17.5331 13.4287V12.0387H14.4337V22.0577H17.5331V16.6397C17.5331 15.4947 18.6144 14.3777 19.9688 14.3777C21.3232 14.3777 21.6572 15.4947 21.6572 16.6117V22.0567H24.7453V16.3887C24.7452 12.4517 22.8239 11.7257 21.3242 11.7257ZM10.8229 11.0736C11.6763 11.0736 12.369 10.4016 12.369 9.5736C12.369 8.74559 11.6763 8.07367 10.8229 8.07367C9.9694 8.07367 9.2767 8.7457 9.2767 9.57371C9.2767 10.4017 9.9694 11.0736 10.8229 11.0736Z" fill="#14142A"/>
</svg>
