<svg width="64" height="65" viewBox="0 0 64 65" fill="none" xmlns="http://www.w3.org/2000/svg">
<path fill-rule="evenodd" clip-rule="evenodd" d="M16.8955 8.61113C16.8955 8.61113 15.9071 1.74707 31.7353 1.74707C48.2765 1.74707 46.9986 10.0228 46.9986 10.0228V23.6979C46.9986 31.9685 38.5817 31.8325 38.5817 31.8325H23.6008C14.6172 31.8325 14.9016 40.6728 14.9016 40.6728V48.0839H9.62562C9.62562 48.0839 0.785277 48.6502 0.785278 32.6795C0.785278 16.7087 10.9137 17.8573 10.9137 17.8573H32.0176V15.7222H16.9132L16.8955 8.61113ZM26.1241 9.24636C26.1241 7.74358 24.9095 6.52897 23.4067 6.52897C21.9039 6.52897 20.6893 7.74358 20.6893 9.24636C20.6893 10.7491 21.9039 11.9638 23.4067 11.9638C24.9095 11.9638 26.1241 10.7491 26.1241 9.24636Z" fill="#7B4AE2" fill-opacity="0.5"/>
<path fill-rule="evenodd" clip-rule="evenodd" d="M47.0246 56.9079C47.0246 56.9079 48.013 63.772 32.1848 63.772C15.6437 63.772 16.9216 55.4963 16.9216 55.4963V41.8211C16.9216 33.5505 25.3384 33.6866 25.3384 33.6866H40.3194C49.3029 33.6866 49.0186 24.8462 49.0186 24.8462V17.4352H54.2945C54.2945 17.4352 63.1349 16.8688 63.1349 32.8396C63.1349 48.8104 53.0064 47.6617 53.0064 47.6617H31.9025V49.7968H47.007L47.0246 56.9079ZM37.7961 56.2727C37.7961 57.7755 39.0107 58.9901 40.5135 58.9901C42.0163 58.9901 43.2309 57.7755 43.2309 56.2727C43.2309 54.7699 42.0163 53.5553 40.5135 53.5553C39.0107 53.5553 37.7961 54.7699 37.7961 56.2727Z" fill="#7B4AE2" fill-opacity="0.5"/>
</svg>
