<svg width="64" height="65" viewBox="0 0 64 65" fill="none" xmlns="http://www.w3.org/2000/svg">
<path d="M32.0003 0.854492C25.6712 0.854435 19.4843 2.73118 14.2219 6.2474C8.95943 9.76361 4.85787 14.7614 2.43585 20.6087C0.013834 26.456 -0.619853 32.8901 0.614927 39.0976C1.84971 45.305 4.89749 51.0069 9.37287 55.4822C13.8482 59.9574 19.5502 63.0051 25.7577 64.2397C31.9651 65.4743 38.3993 64.8405 44.2465 62.4183C50.0938 59.9962 55.0914 55.8945 58.6075 50.632C62.1236 45.3695 64.0002 39.1825 64 32.8534C63.9903 24.3696 60.6158 16.2361 54.6168 10.2372C48.6177 4.23827 40.4841 0.863953 32.0003 0.854492ZM3.23026 32.8534C3.22708 28.8187 4.07592 24.8288 5.72124 21.1447L19.4453 58.7462C14.584 56.3882 10.4849 52.709 7.61721 48.1298C4.74953 43.5506 3.2292 38.2564 3.23026 32.8534ZM32.0003 61.6258C29.2489 61.6259 26.5117 61.2311 23.8724 60.4536L32.5055 35.37L41.348 59.5981C41.4057 59.7357 41.4747 59.8683 41.5543 59.9946C38.4851 61.0759 35.2544 61.6275 32.0003 61.6258ZM35.9651 19.3643C37.6971 19.2733 39.258 19.091 39.258 19.091C39.5691 19.0623 39.8563 18.9124 40.0577 18.6736C40.2591 18.4348 40.3585 18.1264 40.3344 17.815C40.3102 17.5036 40.1646 17.2141 39.9288 17.0092C39.6931 16.8043 39.3862 16.7004 39.0744 16.7199C39.0744 16.7199 34.4143 17.0857 31.4057 17.0857C28.5792 17.0857 23.8288 16.7199 23.8288 16.7199C23.5175 16.7013 23.2114 16.8058 22.9764 17.0108C22.7414 17.2158 22.5963 17.5049 22.5724 17.8158C22.5485 18.1267 22.6476 18.4346 22.8485 18.6732C23.0494 18.9117 23.336 19.0617 23.6465 19.091C23.6465 19.091 25.1136 19.2733 26.664 19.3643L31.1464 31.6458L24.8488 50.5284L14.3727 19.3643C16.106 19.2733 17.6653 19.0911 17.6653 19.0911C17.9761 19.0621 18.263 18.912 18.4641 18.6732C18.6652 18.4345 18.7644 18.1262 18.7402 17.815C18.7161 17.5038 18.5706 17.2145 18.335 17.0096C18.0995 16.8048 17.7929 16.7007 17.4813 16.7199C17.4813 16.7199 12.8224 17.0858 9.81378 17.0858C9.27394 17.0858 8.63721 17.0725 7.96224 17.0508C10.2496 13.5696 13.2658 10.6269 16.8023 8.42594C20.3387 6.22504 24.3111 4.81853 28.4445 4.3037C32.578 3.78886 36.7739 4.17798 40.7422 5.44415C44.7105 6.71032 48.3564 8.82331 51.4279 11.637C51.304 11.6294 51.1829 11.614 51.0556 11.614C49.7388 11.6532 48.4911 12.2125 47.5856 13.1694C46.6801 14.1263 46.1906 15.403 46.2242 16.7199C46.5258 19.1868 47.5039 21.5222 49.0503 23.4677C50.5623 25.841 51.3836 28.5885 51.4222 31.4022C51.1233 34.5883 50.3866 37.718 49.2331 40.7029L46.3627 50.2911L35.9651 19.3643ZM46.4642 57.7212L55.2516 32.3144C56.6463 29.0551 57.3896 25.5543 57.4395 22.0095C57.4413 21.0201 57.3767 20.0317 57.2461 19.0509C60.8415 25.6308 61.7266 33.3543 59.7127 40.5769C57.6989 47.7995 52.9454 53.9508 46.4642 57.7212Z" fill="#7B4AE2" fill-opacity="0.5"/>
</svg>
